<svg id="SvgjsSvg7112" width="360" height="360" xmlns="http://www.w3.org/2000/svg" version="1.1" xmlns:xlink="http://www.w3.org/1999/xlink" xmlns:svgjs="http://svgjs.com/svgjs"><defs id="SvgjsDefs7113"></defs><g id="SvgjsG7114"><svg xmlns="http://www.w3.org/2000/svg" fill="none" viewBox="0 0 3000 3000" width="360" height="360"><path fill="#e9d5ff" d="M522.205 915.825C659.835 874.45 808.935 694.587 866.281 609.827C948.001 463.293 685.641 609.827 556.613 678.784C427.584 747.741 350.167 967.543 522.205 915.825Z" class="colorE7E8FF svgShape"></path><path fill="#e9d5ff" d="M2810.31 2172.37C2810.31 2318.79 2728.89 2460.64 2647.72 2562.19C2581.65 2644.84 2476.96 2680.93 2371.27 2680.93H481.498C375.441 2680.93 301.375 2530.51 283.076 2425.83C250.604 2240.06 79.9827 2032.89 109.308 1715.53C152.317 1250.07 444.783 1107.84 750.15 931.139C1055.52 754.436 857.674 495.846 1382.39 340.692C1907.11 185.539 2461.93 698.408 2444.73 1176.8C2427.52 1655.19 2810.31 1724.15 2810.31 2172.37Z" class="colorE7E8FF svgShape"></path><path fill="#ffffff" d="M1085.9 2083.26C998.426 2178.19 1313.34 2439.23 1313.34 2680.93H1542.97H1772.6C1749.27 2666.28 1709.62 2618.53 1737.61 2544.7C1772.6 2452.41 1986.92 2417.25 1943.18 2320.57C1899.44 2223.89 1798.84 2320.57 1702.62 2263.44C1606.39 2206.31 1711.37 2153.58 1838.21 2026.13C1965.05 1898.69 1737.61 1911.87 1641.39 1960.21C1545.16 2008.55 1549.53 1920.66 1562.66 1736.09C1575.78 1551.51 1497.05 1402.1 1431.44 1437.25C1365.83 1472.41 1475.18 1876.72 1405.2 1832.77C1335.21 1788.82 1265.23 1630.62 1243.36 1780.03C1221.49 1929.45 1383.33 2162.36 1313.34 2179.94C1243.36 2197.52 1195.25 1964.61 1085.9 2083.26Z" class="colorfff svgShape"></path><path fill="#d8b4fe" d="M1202.32 2679.1L1164.41 2371.59L359.837 2337.89L338.775 2679.1H1202.32Z" class="color032068 svgShape"></path><path fill="#ffffff" d="M647.036 1138.64L630.186 1227.1L647.036 1319.77C690.564 1325.39 779.305 1336.62 786.045 1336.62C792.785 1336.62 842.21 1294.5 866.081 1273.44L840.806 1138.64C911.575 1115.05 934.883 1010.86 937.692 961.719C954.541 759.523 819.744 734.249 794.47 734.249C769.195 734.249 609.124 734.249 588.062 902.745C571.213 1037.54 620.357 1116.17 647.036 1138.64Z" class="colorfff svgShape"></path><path fill="#d8b4fe" fill-rule="evenodd" d="M693.284 763.136C649.848 783.106 606.726 822.868 596.608 903.813C580.049 1036.28 628.542 1111.81 652.583 1132.05L656.439 1135.3L638.947 1227.14L654.383 1312.04C675.904 1314.8 705.546 1318.57 731.39 1321.76C745.616 1323.51 758.673 1325.09 768.584 1326.22C773.543 1326.79 777.687 1327.25 780.786 1327.56C782.337 1327.72 783.596 1327.83 784.548 1327.91C784.707 1327.92 784.855 1327.93 784.992 1327.95C785.276 1327.8 785.642 1327.6 786.097 1327.33C787.797 1326.34 790.122 1324.79 793.011 1322.72C798.757 1318.59 806.157 1312.79 814.204 1306.25C828.692 1294.46 844.945 1280.52 856.712 1270.21L830.957 1132.84L838.082 1130.47C870.022 1119.82 892.177 1090.61 906.814 1056.38C921.369 1022.34 927.733 985.018 929.093 961.227L929.099 961.115L929.108 961.003C937.357 862.019 908.477 807.982 876.083 778.533C843.219 748.657 805.412 742.861 794.47 742.861C782.011 742.861 737.288 742.904 693.284 763.136ZM784.256 1328.28C784.257 1328.28 784.299 1328.26 784.378 1328.24C784.294 1328.27 784.255 1328.28 784.256 1328.28ZM794.395 725.636H794.47C808.801 725.636 851.03 732.478 887.67 765.787C924.768 799.513 954.853 859.179 946.283 962.322C944.821 987.68 938.123 1026.97 922.653 1063.15C908.198 1096.95 885.412 1129.56 850.602 1144.15L875.447 1276.66L871.779 1279.89C859.792 1290.47 841.375 1306.35 825.074 1319.61C816.938 1326.23 809.226 1332.28 803.062 1336.71C799.998 1338.91 797.168 1340.82 794.783 1342.21C793.598 1342.9 792.363 1343.56 791.161 1344.07C790.208 1344.48 788.284 1345.24 786.045 1345.24C783.722 1345.24 776.211 1344.44 766.621 1343.34C756.637 1342.19 743.524 1340.61 729.282 1338.85C700.792 1335.34 667.707 1331.12 645.933 1328.31L639.688 1327.51L621.425 1227.06L637.668 1141.79C608.083 1113.53 563.1 1033.01 579.516 901.677C590.46 814.126 637.904 769.639 686.088 747.485C733.612 725.636 781.469 725.636 794.395 725.636Z" clip-rule="evenodd" class="color032068 svgShape"></path><path fill="#ffffff" d="M1647.71 1374.76C1630.11 1400.69 1560.15 1472.26 1552.13 1485.05L1583.65 1558.58L1669.95 1578.61C1689.37 1551.07 1744.91 1522.44 1758.13 1479.46C1768.69 1445.07 1728.27 1398.37 1708.48 1390.79L1768.9 1308.01C1776.97 1296.96 1774.69 1281.49 1763.79 1273.23C1753.12 1265.16 1738 1266.87 1729.42 1277.13L1647.71 1374.76Z" class="colorfff svgShape"></path><path fill="#d8b4fe" fill-rule="evenodd" d="M1768.99 1266.37C1754.66 1255.52 1734.35 1257.82 1722.82 1271.6L1640.83 1369.57L1640.58 1369.93C1632.22 1382.25 1610.86 1406.07 1589.96 1429.04C1587.38 1431.87 1584.82 1434.68 1582.3 1437.44C1574.73 1445.74 1567.55 1453.62 1561.55 1460.33C1553.81 1468.99 1547.32 1476.51 1544.83 1480.48L1542.44 1484.3L1577.46 1565.98L1673.65 1588.31L1676.99 1583.58C1681.24 1577.56 1687.71 1571.15 1695.78 1563.99C1699.64 1560.56 1703.75 1557.06 1708.04 1553.4L1708.49 1553.03C1712.92 1549.25 1717.52 1545.32 1722.09 1541.26C1740.11 1525.24 1758.99 1505.96 1766.36 1481.99C1772.82 1460.98 1763.52 1437.83 1751.86 1420.3C1745.86 1411.28 1738.84 1403.15 1731.95 1396.71C1728.43 1393.42 1724.78 1390.44 1721.19 1387.98L1775.86 1313.09C1786.69 1298.25 1783.64 1277.46 1768.99 1266.37ZM1736.02 1282.66C1741.66 1275.93 1751.59 1274.8 1758.59 1280.1C1765.75 1285.52 1767.24 1295.68 1761.95 1302.93L1694.89 1394.8L1705.4 1398.83C1708.84 1400.15 1714.13 1403.64 1720.2 1409.3C1726.12 1414.83 1732.26 1421.94 1737.52 1429.84C1748.37 1446.15 1754 1463.55 1749.89 1476.92C1744.05 1495.93 1728.56 1512.46 1710.64 1528.39C1706.23 1532.31 1701.76 1536.13 1697.32 1539.91L1696.82 1540.34C1692.57 1543.96 1688.34 1547.56 1684.35 1551.1C1677.79 1556.92 1671.54 1562.87 1666.5 1568.97L1589.85 1551.18L1561.99 1486.19C1564.59 1482.94 1568.81 1478.06 1574.4 1471.81C1580.33 1465.16 1587.42 1457.38 1594.97 1449.1C1597.5 1446.33 1600.09 1443.5 1602.69 1440.63C1622.99 1418.33 1645.2 1393.64 1654.58 1379.97L1736.02 1282.66Z" clip-rule="evenodd" class="color032068 svgShape"></path><path fill="#d8b4fe" d="M693.371 1054.39C676.521 1152.12 652.651 1162.51 642.822 1155.49C524.875 1079.67 527.72 837.411 600.698 755.311C668.096 679.487 718.645 708.975 857.655 675.275C996.664 641.576 1043 700.549 1017.73 776.373C981.343 885.522 866.079 826.922 836.592 839.559C807.106 852.196 769.194 885.896 752.344 953.294C735.495 1020.69 727.07 1008.05 714.433 970.143C701.796 932.232 668.096 877.47 642.822 944.869C622.602 998.788 668.096 1040.35 693.371 1054.39Z" class="color032068 svgShape"></path><path fill="#ffffff" fill-rule="evenodd" d="M827.413 2476.9C682.787 2479.71 380.898 2480.27 330.349 2460.05C311.982 2452.71 304.292 2380.93 303.04 2280.42C252.534 2229.29 201.637 2172.4 161.856 2118.85C74.2375 2000.9 94.4571 1864.7 115.519 1811.34C225.034 1499.65 362.627 1331.15 431.435 1284.8C431.439 1284.8 431.443 1284.8 431.447 1284.79C469.359 1255.31 570.457 1217.39 625.218 1208.97C636.451 1239.86 671.554 1301.64 755.802 1301.64C840.051 1301.64 855.496 1239.86 861.113 1208.97C921.49 1210.37 1080.16 1243.51 1164.41 1364.83C1228.77 1457.52 1255.37 1539.19 1273.06 1593.49C1284.31 1628.04 1291.95 1651.51 1303.42 1659.7C1318.86 1670.73 1378.2 1612.44 1437.28 1554.41C1491.01 1501.63 1544.52 1449.08 1564.58 1449.08C1606.71 1449.08 1703.59 1533.32 1703.59 1583.87C1703.59 1634.42 1471.91 2064.09 1404.51 2110.42C1337.11 2156.76 1261.29 2131.49 1223.38 2085.15C1231.8 2176.42 1241.07 2408.66 1210.74 2438.99C1180.41 2469.32 942.552 2476.9 827.413 2476.9Z" clip-rule="evenodd" class="colorfff svgShape"></path><path fill="#d8b4fe" fill-rule="evenodd" d="M630.896 1199.38L633.312 1206.03C644.039 1235.52 676.929 1293.03 755.803 1293.03C795.474 1293.03 817.815 1278.65 831.159 1261.58C844.885 1244.03 849.871 1222.65 852.639 1207.43L853.956 1200.19L861.313 1200.36C892.574 1201.09 948.371 1209.95 1007.07 1233.96C1065.81 1257.99 1128.12 1297.48 1171.48 1359.92C1236.57 1453.64 1263.48 1536.29 1281.22 1590.75L1281.25 1590.83C1286.91 1608.23 1291.51 1622.33 1296.09 1633.12C1300.64 1643.87 1304.55 1649.73 1308.09 1652.44C1308.32 1652.44 1308.75 1652.42 1309.47 1652.28C1311.44 1651.88 1314.37 1650.75 1318.35 1648.53C1326.25 1644.13 1336.45 1636.51 1348.42 1626.38C1372.27 1606.18 1401.63 1577.36 1431.25 1548.26L1431.39 1548.12C1458.15 1521.84 1485.1 1495.37 1507.89 1475.46C1519.3 1465.5 1529.88 1457 1539.03 1450.93C1543.6 1447.9 1547.99 1445.36 1552.08 1443.56C1556.06 1441.8 1560.36 1440.46 1564.58 1440.46C1577.46 1440.46 1593.05 1446.7 1608.39 1455.58C1624.04 1464.64 1640.61 1477.15 1655.75 1491.21C1670.87 1505.25 1684.81 1521.06 1695.02 1536.8C1705.1 1552.32 1712.21 1568.77 1712.21 1583.87C1712.21 1588.31 1711 1593.92 1709.25 1600C1707.44 1606.27 1704.82 1613.76 1701.54 1622.22C1694.96 1639.17 1685.55 1660.49 1674.12 1684.64C1651.25 1732.96 1620.1 1793.03 1586.86 1852.91C1553.62 1912.78 1518.23 1972.61 1486.88 2020.43C1471.21 2044.33 1456.48 2065.34 1443.49 2081.89C1430.67 2098.21 1418.99 2110.92 1409.39 2117.52C1346.77 2160.57 1277.32 2145.41 1233.93 2108.18C1237.45 2155.32 1240.56 2222.86 1240.21 2284.97C1239.99 2321.73 1238.57 2356.83 1235.25 2384.76C1233.59 2398.71 1231.43 2411.11 1228.63 2421.14C1225.93 2430.81 1222.29 2439.62 1216.83 2445.08C1211.5 2450.42 1202.75 2454.35 1192.93 2457.52C1182.77 2460.81 1170.11 2463.67 1155.73 2466.19C1126.95 2471.24 1090.45 2475.06 1051.51 2477.91C973.626 2483.61 885.204 2485.51 827.499 2485.52C755.108 2486.92 643.406 2487.76 543.427 2485.72C493.429 2484.7 446.264 2482.96 408.377 2480.2C389.439 2478.82 372.717 2477.18 359.069 2475.22C345.621 2473.3 334.495 2470.99 327.151 2468.05C322.713 2466.27 319.378 2462.89 316.86 2459.23C314.314 2455.53 312.202 2450.98 310.396 2445.91C306.785 2435.77 303.965 2422.3 301.746 2406.36C297.398 2375.13 295.16 2332.89 294.474 2284C244.592 2233.33 194.397 2177.1 154.942 2123.98C65.1004 2003.04 85.6874 1863.62 107.447 1808.34C162.4 1651.97 224.451 1531.34 281.529 1443.86C338.368 1356.75 390.609 1302.01 426.38 1277.82C446.428 1262.31 482.052 1245.17 518.915 1230.95C556.06 1216.62 595.67 1204.8 623.909 1200.46L630.896 1199.38ZM868.15 1217.88C864.897 1233.34 858.803 1254.19 844.73 1272.19C827.885 1293.74 800.38 1310.25 755.803 1310.25C672.026 1310.25 633.954 1252.53 619.755 1218.63C593.716 1223.45 558.679 1234.07 525.114 1247.02C488.397 1261.18 454.644 1277.66 436.738 1291.59C436.737 1291.59 436.74 1291.59 436.738 1291.59L436.497 1291.78L436.247 1291.95C403.216 1314.2 352.365 1366.82 295.955 1453.27C239.675 1539.53 178.193 1658.95 123.645 1814.2L123.591 1814.35L123.53 1814.5C103.188 1866.04 83.4589 1998.87 168.769 2113.71C208.234 2166.84 258.838 2223.41 309.168 2274.37L311.609 2276.84L311.652 2280.32C312.277 2330.46 314.508 2373.1 318.807 2403.99C320.963 2419.47 323.587 2431.61 326.623 2440.13C328.141 2444.39 329.652 2447.44 331.048 2449.46C332.471 2451.53 333.394 2451.99 333.548 2452.06C338.841 2454.17 348.206 2456.27 361.509 2458.17C374.61 2460.05 390.897 2461.65 409.629 2463.02C447.082 2465.75 493.906 2467.49 543.778 2468.5C643.499 2470.54 755.008 2469.69 827.246 2468.29L827.329 2468.29H827.413C884.85 2468.29 972.878 2466.4 1050.25 2460.73C1088.96 2457.9 1124.81 2454.13 1152.76 2449.23C1166.74 2446.77 1178.54 2444.07 1187.64 2441.13C1197.09 2438.08 1202.41 2435.15 1204.65 2432.9C1206.78 2430.77 1209.48 2425.7 1212.04 2416.51C1214.51 2407.67 1216.54 2396.24 1218.14 2382.73C1221.35 2355.73 1222.77 2321.37 1222.98 2284.87C1223.4 2211.91 1218.99 2131.32 1214.8 2085.94L1212.22 2057.9L1230.05 2079.69C1265.66 2123.22 1336.59 2146.67 1399.63 2103.33C1406.88 2098.34 1417.19 2087.49 1429.94 2071.25C1442.52 2055.23 1456.95 2034.67 1472.48 2010.99C1503.52 1963.63 1538.69 1904.2 1571.8 1844.55C1604.9 1784.9 1635.88 1725.18 1658.56 1677.27C1669.9 1653.31 1679.12 1632.4 1685.48 1616C1688.66 1607.79 1691.08 1600.82 1692.7 1595.22C1694.37 1589.42 1694.98 1585.75 1694.98 1583.87C1694.98 1573.71 1689.98 1560.66 1680.57 1546.17C1671.31 1531.9 1658.38 1517.16 1644.02 1503.83C1629.67 1490.5 1614.12 1478.8 1599.76 1470.48C1585.08 1461.99 1572.77 1457.69 1564.58 1457.69C1563.79 1457.69 1562.03 1457.99 1559.04 1459.32C1556.15 1460.59 1552.65 1462.57 1548.54 1465.29C1540.33 1470.73 1530.42 1478.66 1519.22 1488.44C1496.85 1507.97 1470.24 1534.11 1443.32 1560.55L1443.12 1560.75C1413.73 1589.62 1383.94 1618.87 1359.55 1639.52C1347.37 1649.83 1336.14 1658.34 1326.73 1663.58C1322.05 1666.19 1317.35 1668.26 1312.89 1669.16C1308.46 1670.06 1303.05 1670.02 1298.41 1666.7C1290.56 1661.1 1285.02 1651.16 1280.23 1639.84C1275.33 1628.29 1270.51 1613.5 1264.98 1596.5L1264.87 1596.16C1247.23 1542.01 1220.94 1461.34 1157.33 1369.74C1116.44 1310.86 1057.3 1273.12 1000.55 1249.9C948.176 1228.48 898.413 1219.66 868.15 1217.88Z" clip-rule="evenodd" class="color032068 svgShape"></path><path fill="#ffffff" d="M602.062 2047.76C613.905 2039.8 629.959 2042.95 637.92 2054.79L825.619 2334.03C833.579 2345.87 830.432 2361.93 818.589 2369.89L437.516 2626.04C425.673 2634 409.619 2630.85 401.658 2619.01L213.959 2339.77C205.999 2327.93 209.146 2311.88 220.989 2303.92L602.062 2047.76Z" class="colorfff svgShape"></path><path fill="#d8b4fe" fill-rule="evenodd" d="M597.258 2040.62C613.048 2030 634.454 2034.2 645.068 2049.99L832.767 2329.23C843.381 2345.02 839.185 2366.42 823.394 2377.04L442.321 2633.19C426.53 2643.8 405.125 2639.61 394.51 2623.81L206.812 2344.58C196.197 2328.79 200.394 2307.38 216.184 2296.77L597.258 2040.62ZM630.772 2059.6C625.465 2051.7 614.762 2049.6 606.867 2054.91L225.794 2311.06C217.898 2316.37 215.8 2327.07 221.107 2334.97L408.806 2614.21C414.113 2622.1 424.816 2624.2 432.711 2618.89L813.785 2362.74C821.68 2357.43 823.778 2346.73 818.471 2338.83L630.772 2059.6Z" clip-rule="evenodd" class="color032068 svgShape"></path><path fill="#ffffff" d="M667.345 2358.96C640.386 2345.48 625.221 2330.87 621.009 2325.26C599.947 2349.13 555.295 2405.29 545.185 2438.99C532.548 2481.11 599.947 2544.3 621.009 2548.51C642.071 2552.73 705.257 2514.81 717.894 2493.75C728.004 2476.9 705.257 2446.01 692.62 2434.78C699.64 2424.95 724.634 2413.72 717.894 2396.87C709.469 2375.8 701.044 2375.8 667.345 2358.96Z" class="colorfff svgShape"></path><path fill="#d8b4fe" fill-rule="evenodd" d="M621.551 2311.62L627.899 2320.09C631.112 2324.37 645.101 2338.2 671.197 2351.25C677.472 2354.39 682.817 2356.91 687.537 2359.14C689.082 2359.87 690.56 2360.57 691.982 2361.25C697.625 2363.94 702.556 2366.39 706.755 2369.09C715.927 2374.98 721.156 2381.83 725.891 2393.67C731.385 2407.4 723.077 2418.12 716.438 2424.61C713.609 2427.38 710.432 2430.01 707.722 2432.26C707.124 2432.75 706.549 2433.23 706.006 2433.68C705.565 2434.05 705.148 2434.4 704.754 2434.74C710.501 2441.05 716.716 2449.36 721.383 2458.1C724.642 2464.2 727.367 2470.91 728.482 2477.59C729.6 2484.29 729.201 2491.65 725.28 2498.18C721.308 2504.8 714 2511.9 705.78 2518.5C697.362 2525.26 687.251 2532.09 676.926 2538.06C666.617 2544.03 655.879 2549.28 646.19 2552.79C636.977 2556.13 627.103 2558.52 619.32 2556.96C615.336 2556.16 611.029 2554.18 606.88 2551.78C602.6 2549.31 597.942 2546.08 593.161 2542.31C583.599 2534.75 573.163 2524.72 563.831 2513.47C554.524 2502.24 546.072 2489.51 540.768 2476.54C535.496 2463.65 532.996 2449.65 536.936 2436.52C542.435 2418.19 556.893 2394.71 571.965 2373.46C587.226 2351.93 603.85 2331.69 614.551 2319.56L621.551 2311.62ZM586.016 2383.42C570.969 2404.64 558.046 2426.1 553.435 2441.47C551.057 2449.39 552.243 2459.09 556.712 2470.02C561.149 2480.88 568.494 2492.11 577.09 2502.47C585.66 2512.81 595.233 2521.99 603.837 2528.79C608.139 2532.19 612.103 2534.91 615.491 2536.87C619.01 2538.9 621.417 2539.81 622.698 2540.07C625.446 2540.62 631.368 2539.84 640.322 2536.6C648.798 2533.53 658.596 2528.77 668.296 2523.16C677.979 2517.55 687.351 2511.21 694.993 2505.07C702.833 2498.77 708.162 2493.23 710.509 2489.32C711.643 2487.43 712.191 2484.61 711.492 2480.43C710.791 2476.23 708.935 2471.35 706.191 2466.22C700.68 2455.9 692.475 2446.17 686.898 2441.22L681.112 2436.07L685.611 2429.77C688.105 2426.28 691.846 2423.07 694.952 2420.47C695.63 2419.9 696.297 2419.35 696.953 2418.81C699.63 2416.59 702.124 2414.52 704.396 2412.3C710.325 2406.5 711.144 2403.18 709.898 2400.07C706.208 2390.84 703.012 2387.16 697.44 2383.58C694.268 2381.54 690.247 2379.51 684.569 2376.8C683.228 2376.16 681.802 2375.49 680.291 2374.77C675.545 2372.53 669.957 2369.89 663.494 2366.66C643.565 2356.69 629.526 2345.98 621.25 2338.15C611.225 2349.95 598.161 2366.29 586.016 2383.42Z" clip-rule="evenodd" class="color032068 svgShape"></path><path fill="#ffffff" d="M161.856 2118.85C74.2375 2000.9 94.4571 1864.7 115.519 1811.34L431.449 1912.44C431.449 1984.05 654.707 2266.28 642.07 2325.26C629.433 2384.23 540.972 2455.84 503.06 2447.42C465.149 2438.99 271.378 2266.28 161.856 2118.85Z" class="colorfff svgShape"></path><path fill="#d8b4fe" fill-rule="evenodd" d="M154.942 2123.98C65.0164 2002.93 85.726 1863.36 107.508 1808.18L123.53 1814.5C103.188 1866.04 83.4589 1998.87 168.769 2113.71C223.122 2186.88 298.554 2266.53 365.201 2328.98C398.508 2360.18 429.505 2386.99 454.455 2406.47C466.939 2416.21 477.808 2424.04 486.631 2429.66C495.763 2435.47 501.811 2438.31 504.929 2439.01C511.573 2440.48 522.041 2438.58 535.355 2432.37C548.325 2426.32 562.687 2416.78 576.458 2405.05C604.317 2381.32 627.913 2350.22 633.648 2323.45C634.673 2318.67 633.41 2309.86 628.551 2296.46C623.86 2283.52 616.394 2267.79 606.894 2250C587.905 2214.44 561.348 2171.65 534.193 2128.15C532.809 2125.93 531.424 2123.71 530.038 2121.49C504.314 2080.3 478.402 2038.8 458.601 2003.03C448.165 1984.18 439.319 1966.73 433.06 1951.61C426.908 1936.75 422.837 1923.19 422.837 1912.44H440.062C440.062 1919.6 442.967 1930.51 448.976 1945.03C454.877 1959.28 463.374 1976.09 473.671 1994.69C493.244 2030.04 518.933 2071.18 544.75 2112.53C546.102 2114.7 547.453 2116.86 548.805 2119.03C575.884 2162.41 602.772 2205.71 622.089 2241.89C631.743 2259.97 639.646 2276.52 644.745 2290.59C649.677 2304.19 652.626 2317.1 650.491 2327.06C643.589 2359.27 616.637 2393.46 587.628 2418.17C572.966 2430.66 557.314 2441.13 542.64 2447.98C528.31 2454.67 513.504 2458.56 501.192 2455.82C494.832 2454.41 486.532 2450.01 477.383 2444.19C467.925 2438.17 456.58 2429.98 443.855 2420.04C418.387 2400.16 386.989 2373 353.423 2341.54C286.326 2278.67 210.112 2198.25 154.942 2123.98Z" clip-rule="evenodd" class="color032068 svgShape"></path><path fill="#d8b4fe" d="M1189.68 1668.12L1223.38 2089.36C1236.86 2099.47 1262.69 2118.85 1273.93 2123.06 1270.56 2089.36 1216.36 1805.73 1189.68 1668.12zM119.736 1802.92C150.627 1850.66 203.141 1982.37 166.072 2127.27 126.756 2085.15 62.447 1961.3 119.736 1802.92z" class="color032068 svgShape"></path><path fill="#d8b4fe" d="M1223.38 2085.15C1324.48 2037.97 1408.73 2057.07 1438.21 2072.51 1428.38 2092.17 1393.56 2132.33 1332.9 2135.7 1272.24 2139.07 1234.61 2103.4 1223.38 2085.15zM486.213 1920.86C482.844 1853.47 510.084 1735.52 524.125 1684.97 515.7 1697.61 492.111 1737.2 465.151 1794.49 431.452 1866.1 423.027 1912.44 444.089 1954.56 453.211 1972.81 488.256 2033.02 526.504 2097.79L545.187 2082.1C515.491 2021.81 488.397 1964.54 486.213 1920.86z" class="color032068 svgShape"></path><path fill="#ffffff" d="M772.653 2578L743.167 2683.31H772.653V2578Z" class="colorfff svgShape"></path><path fill="#d8b4fe" d="M751.594 1137.36C792.033 1150.84 826.013 1142.97 840.054 1137.36L852.691 1196.33C798.773 1189.59 762.827 1152.8 751.594 1137.36Z" class="color032068 svgShape"></path><path fill="#ffffff" d="M1139.45 631.118C1139.45 607.335 1158.73 588.055 1182.52 588.055H2767.24C2791.03 588.055 2810.31 607.335 2810.31 631.118V1844.54C2810.31 1868.33 2791.03 1887.61 2767.24 1887.61H1182.52C1158.73 1887.61 1139.45 1868.33 1139.45 1844.54V631.118Z" class="colorfff svgShape"></path><path fill="#d8b4fe" fill-rule="evenodd" d="M1130.84 631.118C1130.84 602.579 1153.98 579.442 1182.52 579.442H2767.24C2795.78 579.442 2818.92 602.578 2818.92 631.118V1844.55C2818.92 1873.08 2795.78 1896.22 2767.24 1896.22H1182.52C1153.98 1896.22 1130.84 1873.08 1130.84 1844.55V631.118ZM1182.52 596.668C1163.49 596.668 1148.07 612.092 1148.07 631.118V1844.55C1148.07 1863.57 1163.49 1879 1182.52 1879H2767.24C2786.27 1879 2801.69 1863.57 2801.69 1844.55V631.118C2801.69 612.092 2786.27 596.668 2767.24 596.668H1182.52Z" clip-rule="evenodd" class="color032068 svgShape"></path><path fill="#d8b4fe" d="M1139.45 631.118C1139.45 607.335 1158.73 588.055 1182.52 588.055H2767.24C2791.03 588.055 2810.31 607.335 2810.31 631.118V799.312H1139.45V631.118Z" class="color032068 svgShape"></path><path fill="#ffffff" d="M1349.73 689.991C1349.73 714.468 1329.88 734.31 1305.41 734.31 1280.93 734.31 1261.09 714.468 1261.09 689.991 1261.09 665.514 1280.93 645.671 1305.41 645.671 1329.88 645.671 1349.73 665.514 1349.73 689.991zM1497.45 689.991C1497.45 714.468 1477.61 734.31 1453.13 734.31 1428.66 734.31 1408.81 714.468 1408.81 689.991 1408.81 665.514 1428.66 645.671 1453.13 645.671 1477.61 645.671 1497.45 665.514 1497.45 689.991zM1645.19 689.991C1645.19 714.468 1625.34 734.31 1600.87 734.31 1576.39 734.31 1556.55 714.468 1556.55 689.991 1556.55 665.514 1576.39 645.671 1600.87 645.671 1625.34 645.671 1645.19 665.514 1645.19 689.991z" class="colorfff svgShape"></path><path fill="#d8b4fe" fill-rule="evenodd" d="M1341.79 1005.82C1342.52 977.448 1365.34 953.944 1394.16 953.944H1597.59C1625.18 953.944 1648.24 975.734 1648.74 1003.62 1650.55 1104.39 1638.72 1167.73 1588.09 1243.79 1578.75 1257.83 1562.89 1265.65 1546.42 1265.65H1354.91C1314.69 1265.65 1291.16 1222.56 1306.49 1187.27 1329.48 1134.39 1339.78 1083.15 1341.79 1005.82zM1394.16 971.169C1375.11 971.169 1359.51 986.792 1359.01 1006.27 1356.96 1085.2 1346.37 1138.73 1322.29 1194.14 1311.19 1219.67 1328.82 1248.42 1354.91 1248.42H1546.42C1557.53 1248.42 1567.82 1243.16 1573.76 1234.24 1621.83 1162.03 1633.29 1102.5 1631.52 1003.93 1631.19 985.736 1616.09 971.169 1597.59 971.169H1394.16zM1768.26 1226.44C1769 1198.07 1791.81 1174.56 1820.63 1174.56H2024.06C2051.65 1174.56 2074.71 1196.35 2075.21 1224.24 2077.03 1325.01 2065.19 1388.35 2014.57 1464.4 2005.22 1478.44 1989.36 1486.27 1972.89 1486.27H1781.39C1741.16 1486.27 1717.63 1443.18 1732.96 1407.89 1755.95 1355 1766.25 1303.76 1768.26 1226.44zM1820.63 1191.79C1801.58 1191.79 1785.98 1207.41 1785.48 1226.88 1783.43 1305.81 1772.84 1359.35 1748.76 1414.76 1737.66 1440.29 1755.29 1469.04 1781.39 1469.04H1972.89C1984 1469.04 1994.29 1463.78 2000.23 1454.86 2048.3 1382.64 2059.76 1323.12 2057.99 1224.55 2057.66 1206.35 2042.56 1191.79 2024.06 1191.79H1820.63z" clip-rule="evenodd" class="color032068 svgShape"></path><path fill="#e9d5ff" fill-rule="evenodd" d="M2327.65 1069.84C2328.39 1041.47 2351.2 1017.96 2380.02 1017.96H2583.45C2611.04 1017.96 2634.1 1039.75 2634.6 1067.64C2636.42 1168.41 2624.58 1231.75 2573.96 1307.8C2564.61 1321.84 2548.75 1329.67 2532.28 1329.67H2340.78C2300.55 1329.67 2277.02 1286.58 2292.35 1251.29C2315.34 1198.4 2325.65 1147.16 2327.65 1069.84ZM2380.02 1035.19C2360.97 1035.19 2345.37 1050.81 2344.87 1070.28C2342.82 1149.21 2332.23 1202.75 2308.15 1258.16C2297.05 1283.69 2314.68 1312.44 2340.78 1312.44H2532.28C2543.39 1312.44 2553.68 1307.18 2559.62 1298.26C2607.69 1226.04 2619.15 1166.52 2617.38 1067.95C2617.05 1049.75 2601.95 1035.19 2583.45 1035.19H2380.02Z" clip-rule="evenodd" class="colorE7E8FF svgShape"></path><path fill="#d8b4fe" d="M1449.94 964.009C1449.94 940.226 1469.22 920.946 1493 920.946H1496.5C1520.28 920.946 1539.56 940.226 1539.56 964.009V967.507C1539.56 991.29 1520.28 1010.57 1496.5 1010.57H1493C1469.22 1010.57 1449.94 991.29 1449.94 967.507V964.009zM1876.42 1184.63C1876.42 1160.84 1895.7 1141.56 1919.48 1141.56H1922.98C1946.76 1141.56 1966.04 1160.84 1966.04 1184.63V1188.12C1966.04 1211.91 1946.76 1231.19 1922.98 1231.19H1919.48C1895.7 1231.19 1876.42 1211.91 1876.42 1188.12V1184.63z" class="color032068 svgShape"></path><path fill="#e9d5ff" d="M2435.81 1028.03C2435.81 1004.24 2455.09 984.963 2478.87 984.963H2482.37C2506.15 984.963 2525.43 1004.24 2525.43 1028.03V1031.52C2525.43 1055.31 2506.15 1074.59 2482.37 1074.59H2478.87C2455.09 1074.59 2435.81 1055.31 2435.81 1031.52V1028.03Z" class="colorE7E8FF svgShape"></path><path fill="#d8b4fe" fill-rule="evenodd" d="M1555.57 1102.41H1421.13V1085.18H1555.57V1102.41zM1533.16 1179.23H1398.72V1162H1533.16V1179.23zM1982.04 1323.02H1847.6V1305.8H1982.04V1323.02zM1959.63 1399.84H1825.2V1382.62H1959.63V1399.84z" clip-rule="evenodd" class="color032068 svgShape"></path><path fill="#e9d5ff" fill-rule="evenodd" d="M1907.66 1608.14H1357.11V1590.92H1907.66V1608.14ZM1627.38 1710.57H1357.11V1693.35H1627.38V1710.57Z" clip-rule="evenodd" class="colorE7E8FF svgShape"></path><path fill="#ffffff" d="M2035.44 2220.13C2072.58 2472.59 2264.82 2618.5 2364.64 2663.39C2367.85 2664.83 2371.23 2665.5 2374.74 2665.5H2402.88C2419.6 2665.5 2431.93 2649.81 2427.41 2633.71C2350.47 2359.88 2172.07 2234.29 2065.16 2195.09C2048.73 2189.07 2032.89 2202.8 2035.44 2220.13Z" class="colorfff svgShape"></path><path fill="#d8b4fe" fill-rule="evenodd" d="M2062.2 2203.18C2052.36 2199.57 2042.29 2207.51 2043.96 2218.87C2080.54 2467.5 2270.05 2611.41 2368.18 2655.54C2370.17 2656.44 2372.34 2656.88 2374.74 2656.88H2402.88C2414.12 2656.88 2422.04 2646.43 2419.11 2636.04C2342.99 2365.09 2166.73 2241.5 2062.2 2203.18ZM2026.92 2221.38C2023.49 2198.09 2045.09 2178.56 2068.13 2187.01C2177.42 2227.08 2357.96 2354.68 2435.7 2631.38C2441.83 2653.19 2425.09 2674.11 2402.88 2674.11H2374.74C2370.12 2674.11 2365.52 2673.23 2361.11 2671.25C2259.6 2625.6 2064.62 2477.69 2026.92 2221.38Z" clip-rule="evenodd" class="color032068 svgShape"></path><path fill="#d8b4fe" fill-rule="evenodd" d="M2190.19 2365.44C2163.57 2338.07 2139.52 2316.14 2118.43 2297.4L2129.87 2284.52C2154.73 2306.62 2183.92 2333.32 2216.61 2368.16C2240.89 2394.04 2267.07 2424.39 2294.84 2460.68V2423.54H2312.07V2483.69C2335.79 2516.07 2360.57 2552.79 2386.23 2594.71C2398.41 2614.59 2410.78 2635.65 2423.33 2657.96L2408.32 2666.4C2396.57 2645.52 2384.99 2625.76 2373.59 2607.05L2318.28 2597.76L2321.13 2580.77L2361.54 2587.56C2339.08 2551.74 2317.37 2519.96 2296.52 2491.62C2264.34 2447.88 2234.21 2412.31 2206.59 2382.66H2150.66V2365.44H2190.19Z" clip-rule="evenodd" class="color032068 svgShape"></path><path fill="#d8b4fe" d="M2336.81 1781.73C2175.91 2121.61 2291.37 2494.32 2378.76 2655.8C2383.17 2663.95 2391.71 2668.81 2400.97 2668.81H2441.42C2455 2668.81 2466.28 2658.16 2467.12 2644.61C2493.46 2215.93 2428.07 1917.05 2378.65 1783.16C2371.41 1763.54 2345.76 1762.83 2336.81 1781.73Z" class="color032068 svgShape"></path><path fill="#ffffff" d="M2709.49 1975.45C2503.24 2114.75 2403.12 2455.06 2373.64 2639.82C2371.19 2655.23 2383.26 2668.81 2398.86 2668.81H2458.44C2465.12 2668.81 2471.56 2666.24 2476.3 2661.52C2664.52 2474.06 2731.29 2164.65 2744.8 1996.75C2746.38 1977.08 2725.84 1964.41 2709.49 1975.45Z" class="colorfff svgShape"></path><path fill="#d8b4fe" fill-rule="evenodd" d="M2736.22 1996.06C2737.26 1983.11 2724.28 1975.85 2714.31 1982.59L2709.49 1975.45L2714.31 1982.59C2613.18 2050.89 2537.41 2169.04 2483.18 2294.02C2429.02 2418.82 2396.79 2549.37 2382.15 2641.18C2380.56 2651.13 2388.32 2660.2 2398.86 2660.2H2458.44C2462.92 2660.2 2467.15 2658.47 2470.22 2655.42C2563.07 2562.94 2626.26 2440.05 2667.92 2319C2709.57 2198 2729.51 2079.39 2736.22 1996.06ZM2704.67 1968.31C2727.4 1952.96 2755.51 1971.05 2753.39 1997.44C2746.58 2082.01 2726.39 2202.06 2684.21 2324.6C2642.05 2447.1 2577.74 2572.64 2482.37 2667.63C2475.97 2674 2467.32 2677.42 2458.44 2677.42H2398.86C2378.19 2677.42 2361.81 2659.33 2365.14 2638.47C2379.97 2545.51 2412.54 2413.53 2467.38 2287.16C2522.14 2160.97 2599.56 2039.31 2704.67 1968.31Z" clip-rule="evenodd" class="color032068 svgShape"></path><path fill="#d8b4fe" d="M2882.81 2339.58C2678.25 2347.24 2523.88 2517.18 2453.24 2632C2443.11 2648.47 2455.39 2668.81 2474.73 2668.81H2546.28C2549.86 2668.81 2553.39 2668.08 2556.65 2666.6C2690.86 2605.53 2827.35 2465.49 2900.51 2377.27C2913.49 2361.62 2903.13 2338.82 2882.81 2339.58Z" class="color032068 svgShape"></path><path fill="#ffffff" fill-rule="evenodd" d="M2364.77 1837.16C2362.5 1905.87 2362.14 1972.23 2363.26 2035.59C2364.13 2084.64 2365.87 2131.89 2368.29 2177.03L2405.18 2117.39L2419.83 2126.45L2370.01 2206.99C2373.5 2263.94 2378.02 2317.27 2383.13 2366.3C2389.19 2424.49 2396.06 2476.62 2403.01 2521.59L2434.97 2468.8L2449.71 2477.72L2407.21 2547.92C2415.68 2599.27 2424.01 2639.53 2430.81 2666.72L2414.1 2670.9C2407.01 2642.57 2398.4 2600.73 2389.69 2547.57C2381.6 2498.14 2373.43 2438.87 2366.35 2371.46L2304.11 2317.35L2315.41 2304.35L2363.8 2346.43C2359.49 2302.43 2355.67 2255.24 2352.65 2205.3C2349.46 2152.58 2347.15 2096.8 2346.09 2038.46L2302.63 1974.28L2316.89 1964.63L2345.64 2007.07C2345.07 1952.22 2345.61 1895.26 2347.55 1836.59L2364.77 1837.16Z" clip-rule="evenodd" class="colorfff svgShape"></path><path fill="#d8b4fe" fill-rule="evenodd" d="M2600.62 2244.39C2633.12 2171.66 2666.63 2103.47 2698.33 2050.09L2683.52 2041.29C2648.74 2099.87 2612.03 2175.6 2576.98 2255.2C2557.9 2298.51 2539.29 2343.04 2521.72 2386.64L2507.14 2312.5L2490.23 2315.82L2509.96 2416.09C2491.79 2461.97 2474.93 2506.3 2460.09 2546.51C2442.86 2593.21 2428.33 2634.39 2417.61 2666.05L2433.92 2671.57C2444.37 2640.73 2458.47 2600.74 2475.19 2555.35L2562.71 2503.88L2553.98 2489.03L2484.67 2529.79C2497.58 2495.24 2511.79 2458.19 2526.91 2420.09C2547.06 2369.29 2568.8 2316.65 2591.2 2265.64L2670.43 2239.48L2665.02 2223.12L2600.62 2244.39Z" clip-rule="evenodd" class="color032068 svgShape"></path><path fill="#ffffff" fill-rule="evenodd" d="M2853.45 2388.35C2806.18 2408.84 2758.15 2436.83 2712.33 2467.87C2683.46 2487.43 2655.51 2508.17 2629.23 2528.95H2674.35V2546.17H2607.82C2546.91 2596.04 2497.01 2644.21 2468.52 2674.69L2455.93 2662.93C2485.34 2631.46 2536.74 2581.91 2599.31 2530.89C2630.71 2505.28 2664.96 2479.26 2700.69 2454.95L2726.2 2400.02L2741.82 2407.28L2728.09 2436.86C2766.78 2412.07 2806.84 2389.78 2846.6 2372.55L2853.45 2388.35Z" clip-rule="evenodd" class="colorfff svgShape"></path></svg></g></svg>