<?xml version="1.0" standalone="no"?>
<!DOCTYPE svg PUBLIC "-//W3C//DTD SVG 20010904//EN"
 "http://www.w3.org/TR/2001/REC-SVG-20010904/DTD/svg10.dtd">
<svg
  xmlns="http://www.w3.org/2000/svg"
  viewBox="0 0 1920 1080" 
  preserveAspectRatio="xMidYMid meet"
  style="height: 75vh; width: auto;"
>
  <rect width="100%" height="100%" fill="#D8B4FE" />

<g transform="translate(0.000000,1080.000000) scale(0.100000,-0.100000)"
fill="#C084FC" stroke="none">
<path d="M8097 10040 c-76 -19 -178 -104 -241 -202 l-17 -27 -67 68 c-87 88
-158 123 -263 129 -67 4 -84 1 -132 -21 -113 -52 -201 -180 -228 -332 -23
-135 -1 -305 55 -413 l16 -30 -43 -16 -42 -16 51 4 51 5 34 -47 c97 -137 444
-450 576 -519 80 -42 103 -48 103 -28 0 9 -47 47 -115 91 -125 81 -187 129
-309 238 -85 76 -236 243 -236 261 0 6 43 19 96 29 53 10 139 28 192 41 l97
22 26 154 c15 85 28 156 28 159 1 3 32 -53 70 -125 60 -114 92 -169 205 -362
14 -24 29 -43 33 -43 5 0 26 74 48 165 l40 164 45 6 c25 3 98 13 162 22 65 9
121 14 124 10 12 -11 -60 -200 -108 -283 -55 -96 -137 -213 -239 -341 -102
-127 -133 -188 -85 -170 32 13 276 342 353 475 51 90 98 200 117 273 13 53 13
53 64 64 53 12 102 39 102 55 0 9 -19 7 -102 -10 l-36 -8 0 97 c2 159 -35 263
-125 358 -83 88 -200 128 -300 103z m175 -59 c127 -61 208 -213 208 -391 0
-32 -3 -71 -6 -88 l-6 -30 -117 -17 c-64 -9 -146 -23 -182 -32 -66 -14 -67
-14 -78 -56 -6 -23 -15 -71 -21 -107 -6 -36 -16 -80 -21 -98 l-11 -32 -47 77
c-26 43 -66 107 -88 143 -22 36 -61 104 -87 152 -59 111 -96 156 -108 134 -5
-8 -17 -83 -27 -167 -11 -83 -23 -155 -28 -159 -4 -3 -53 -15 -108 -25 -55
-10 -142 -28 -192 -40 l-93 -22 -26 52 c-39 80 -54 151 -54 255 0 158 45 285
127 361 62 57 115 79 194 79 86 0 158 -35 258 -127 l74 -67 19 25 c40 50 133
140 166 161 87 53 169 59 254 19z"/>
<path d="M11536 9988 c-15 -9 -17 -22 -10 -122 4 -74 2 -137 -6 -187 -17 -103
-21 -108 -54 -60 -52 74 -181 141 -272 141 -66 0 -145 -40 -212 -106 -143
-143 -196 -381 -137 -609 27 -103 100 -237 169 -312 79 -85 139 -118 202 -108
60 9 77 1 109 -47 l27 -41 71 5 c56 4 93 14 168 47 227 99 340 192 409 335 48
101 64 179 58 298 -7 151 -59 243 -172 298 -74 37 -181 49 -265 31 -30 -6 -55
-10 -57 -8 -2 2 8 34 21 73 14 38 25 76 25 85 0 13 37 39 55 39 3 0 11 -13 20
-30 39 -76 193 -99 310 -46 90 40 285 176 285 198 0 28 -71 72 -155 97 -111
33 -237 27 -313 -14 -64 -35 -130 -104 -139 -145 -5 -26 -28 -50 -46 -50 -3 0
-5 42 -4 94 0 71 -4 100 -16 119 -18 28 -47 38 -71 25z m51 -173 c-5 -90 -52
-295 -69 -295 -11 0 -11 3 14 73 18 52 21 85 22 210 1 146 1 148 20 125 16
-20 18 -35 13 -113z m565 88 c72 -33 96 -53 66 -53 -7 0 -47 -27 -91 -61 -43
-33 -103 -72 -133 -86 -57 -26 -154 -40 -198 -29 -31 8 -96 63 -96 81 0 17
129 64 233 84 45 9 81 21 79 26 -6 21 -142 5 -218 -24 -41 -16 -74 -26 -74
-22 0 15 66 73 104 93 61 32 94 38 176 33 58 -4 91 -13 152 -42z m-833 -213
c57 -29 128 -95 152 -142 22 -43 22 -43 150 -27 148 19 262 -11 329 -87 49
-56 71 -116 77 -205 13 -182 -60 -350 -204 -470 -96 -80 -387 -205 -436 -186
-9 3 -25 24 -37 46 -29 58 -62 78 -104 63 -50 -18 -78 -15 -127 16 -225 143
-328 547 -203 796 51 102 131 182 212 212 50 19 138 12 191 -16z"/>
<path d="M13211 9854 c-82 -22 -186 -81 -246 -140 -81 -80 -109 -134 -181
-352 -69 -208 14 -453 195 -580 115 -81 223 -115 366 -114 419 1 710 426 564
822 -62 166 -211 306 -385 360 -80 24 -230 26 -313 4z m254 -29 c213 -45 387
-211 436 -415 20 -84 15 -222 -11 -305 -60 -190 -216 -340 -406 -389 -79 -20
-219 -20 -297 0 -187 48 -335 192 -382 369 -80 308 142 673 449 740 81 18 127
18 211 0z"/>
<path d="M13290 9790 c-173 -26 -339 -155 -380 -295 -7 -22 -24 -67 -38 -100
-20 -45 -27 -82 -30 -151 -7 -150 36 -261 139 -359 203 -193 530 -187 729 14
236 238 206 613 -64 802 -106 75 -235 107 -356 89z m163 -45 c249 -53 418
-296 379 -547 -37 -243 -247 -421 -497 -421 -192 0 -349 95 -426 258 -131 277
58 643 365 710 79 17 98 17 179 0z"/>
<path d="M13231 9690 c-47 -11 -112 -61 -136 -103 -19 -35 -19 -37 -2 -70 29
-53 244 -234 260 -218 13 13 26 290 15 328 -14 52 -71 78 -137 63z m84 -45
c23 -22 25 -32 24 -102 -1 -43 -4 -108 -8 -145 l-6 -67 -80 71 c-93 83 -115
112 -115 154 0 33 33 71 85 98 43 22 72 20 100 -9z"/>
<path d="M13446 9658 c-23 -19 -29 -35 -37 -98 -12 -95 -16 -236 -7 -245 12
-12 46 5 152 75 109 72 136 99 136 139 0 43 -107 125 -191 146 -19 5 -33 0
-53 -17z m140 -60 c84 -60 75 -98 -44 -169 -48 -29 -95 -59 -105 -67 -9 -8
-19 -13 -22 -10 -3 3 1 60 9 129 16 136 23 149 84 149 22 0 49 -11 78 -32z"/>
<path d="M12967 9452 c-48 -50 -73 -154 -52 -216 16 -46 40 -65 83 -66 39 0
267 66 301 87 l23 15 -43 44 c-24 25 -82 72 -128 104 -99 71 -140 78 -184 32z
m138 -39 c22 -14 70 -49 107 -77 l68 -51 -117 -37 c-127 -42 -167 -46 -201
-22 -39 27 -24 147 25 200 28 31 55 27 118 -13z"/>
<path d="M13560 9346 c-133 -49 -160 -62 -160 -79 0 -23 203 -165 267 -187 44
-16 85 7 112 64 43 87 37 197 -12 231 -34 24 -83 17 -207 -29z m180 -6 c30
-16 42 -69 30 -127 -20 -92 -68 -115 -153 -72 -53 27 -168 106 -168 115 0 11
214 93 244 94 16 0 37 -4 47 -10z"/>
<path d="M13350 9240 c-10 -6 -15 -49 -18 -177 l-4 -169 27 -32 c20 -24 35
-32 58 -32 51 0 126 32 173 73 38 33 44 44 44 78 0 54 -19 79 -114 152 -143
110 -152 116 -166 107z m117 -111 c137 -104 156 -140 108 -197 -29 -35 -116
-74 -152 -70 -32 4 -62 43 -65 83 -4 65 2 255 9 255 4 0 49 -32 100 -71z"/>
<path d="M13242 9220 c-12 -5 -65 -34 -117 -65 -96 -57 -135 -93 -135 -126 0
-43 125 -145 192 -155 66 -11 96 63 115 284 6 78 1 84 -55 62z m38 -43 c0 -29
-40 -228 -49 -246 -15 -28 -46 -31 -91 -9 -81 40 -114 113 -69 154 19 17 184
110 202 113 4 0 7 -5 7 -12z"/>
<path d="M5520 9530 c0 -16 -7 -20 -37 -20 -83 -1 -248 -30 -264 -48 -24 -25
-76 -124 -116 -222 -126 -304 -137 -572 -32 -771 41 -77 141 -181 225 -232
l61 -38 -5 -44 c-4 -42 -3 -45 36 -72 27 -18 39 -33 36 -43 -43 -119 -45 -308
-4 -415 54 -143 155 -252 295 -319 113 -54 191 -70 345 -70 139 0 222 14 316
54 l41 18 59 -29 c84 -42 157 -59 249 -59 102 0 167 18 283 76 184 93 351 289
412 483 17 53 17 53 60 55 85 4 127 96 80 173 -51 84 -178 82 -211 -4 -13 -36
6 -98 38 -121 l27 -20 -18 -58 c-95 -306 -396 -554 -671 -554 -37 0 -94 7
-128 16 -72 18 -143 53 -131 63 5 4 35 24 68 46 286 191 440 597 288 759 -38
40 -85 58 -147 55 -45 -2 -58 2 -85 25 -74 62 -145 78 -234 52 -75 -22 -135
-80 -166 -162 -94 -248 -44 -523 127 -705 36 -38 63 -72 60 -75 -3 -3 -43 -17
-89 -31 -109 -33 -313 -38 -423 -9 -224 58 -378 202 -430 402 -32 124 -3 377
41 360 26 -10 86 15 102 44 14 25 23 29 86 35 178 17 336 118 455 290 115 166
241 512 241 662 0 49 -17 119 -34 141 -12 17 -190 106 -229 116 -15 4 -25 11
-22 15 5 10 -41 51 -56 51 -13 0 -49 -76 -49 -103 0 -31 68 -68 82 -43 7 12
17 11 71 -14 34 -15 82 -34 106 -41 23 -7 45 -19 48 -25 7 -18 -31 -186 -74
-324 -119 -391 -326 -600 -594 -600 -283 0 -502 257 -500 584 1 142 14 198 97
443 l46 131 86 11 c181 24 170 24 181 2 14 -25 48 -36 66 -21 18 15 20 121 3
138 -7 7 -25 12 -40 12 -21 0 -28 -5 -28 -20z m58 -57 c2 -39 0 -53 -10 -53
-25 0 -38 23 -38 68 0 39 2 43 23 40 19 -3 22 -10 25 -55z m-171 -20 c-62 -6
-122 -12 -135 -12 -19 -1 -30 -16 -64 -88 -184 -398 -174 -743 28 -962 97
-105 205 -162 334 -176 181 -19 372 77 495 250 106 149 231 482 242 647 l6 77
-99 47 c-54 25 -110 50 -123 55 -13 5 -22 11 -20 14 10 10 206 -78 233 -104
l28 -28 -12 -109 c-30 -288 -144 -556 -309 -728 -143 -149 -295 -207 -457
-173 -184 39 -366 168 -454 322 -118 207 -85 545 86 887 50 100 38 94 214 106
149 10 154 -9 7 -25z m647 -91 c6 -10 -16 -77 -27 -80 -4 -2 -14 1 -23 6 -14
8 -14 12 0 45 14 34 38 48 50 29z m429 -1123 c21 -5 52 -23 69 -38 l31 -28
-35 -21 c-86 -53 -148 -154 -132 -216 15 -60 101 -94 161 -62 45 23 70 60 82
119 10 49 8 70 -15 146 -7 23 -6 24 50 19 68 -6 101 -28 133 -88 67 -126 -15
-380 -178 -555 -62 -66 -198 -165 -226 -165 -25 0 -136 121 -170 185 -54 103
-75 187 -76 305 -1 215 65 358 183 395 56 17 75 18 123 4z m-1009 -86 c38 -12
75 -23 82 -23 21 0 17 -18 -11 -45 -27 -28 -46 -30 -96 -14 -52 18 -79 47 -79
87 0 29 3 33 18 26 9 -4 48 -18 86 -31z m1146 -44 c18 -41 15 -110 -4 -151
-30 -62 -102 -86 -147 -49 -30 24 -29 77 1 126 23 37 104 105 125 105 7 0 18
-14 25 -31z m892 -96 c14 -16 29 -38 33 -51 14 -48 -32 -104 -77 -94 -24 5
-23 19 2 32 22 12 27 49 8 68 -31 31 -90 -3 -67 -39 12 -19 11 -39 -1 -39 -13
0 -40 54 -40 83 0 65 93 91 142 40z m-53 -66 c14 -18 5 -26 -20 -20 -20 5 -24
15 -12 26 10 10 19 8 32 -6z"/>
<path d="M9609 9419 c-176 -15 -280 -60 -384 -164 -105 -105 -178 -252 -205
-413 -31 -188 47 -412 195 -556 118 -115 252 -174 415 -183 288 -16 539 149
637 418 24 66 27 88 27 209 1 115 -3 146 -22 210 -83 265 -276 458 -477 476
-27 3 -63 6 -80 7 -16 2 -64 0 -106 -4z m150 -66 c76 -150 101 -379 63 -563
-11 -52 -34 -132 -52 -177 -35 -93 -36 -93 -125 -70 l-50 13 -6 75 c-7 90 -26
128 -125 265 -114 157 -138 229 -110 328 26 90 52 111 159 135 111 25 130 28
184 30 40 1 44 -2 62 -36z m128 -5 c99 -36 216 -141 265 -236 26 -52 24 -135
-6 -197 -13 -27 -54 -86 -91 -129 -79 -95 -115 -154 -131 -215 l-11 -46 -68
-3 c-62 -3 -67 -1 -60 15 115 293 123 580 20 784 -14 26 -25 51 -25 54 0 7 44
-4 107 -27z m-557 -79 c-28 -62 -26 -157 4 -231 13 -31 55 -101 93 -155 88
-122 120 -186 129 -252 8 -64 -1 -65 -97 -15 -125 66 -241 189 -314 334 -42
83 -42 81 23 178 35 54 171 197 179 189 2 -2 -6 -24 -17 -48z m-154 -448 c70
-106 229 -236 332 -272 37 -13 36 -12 18 -47 -31 -60 -87 -96 -216 -142 l-85
-30 -33 37 c-48 54 -108 181 -127 268 -21 91 -16 222 10 304 l17 54 23 -58
c13 -31 40 -83 61 -114z m1048 147 c31 -109 37 -144 37 -235 0 -140 -3 -149
-57 -162 -73 -19 -197 -41 -226 -41 -26 0 -26 1 -16 38 17 60 43 105 119 199
74 92 119 168 119 203 0 27 16 26 24 -2z m6 -443 c0 -3 -13 -31 -29 -63 -33
-65 -92 -140 -145 -184 l-36 -30 -32 68 c-17 37 -33 88 -36 114 l-4 47 63 8
c35 4 93 15 129 25 71 20 90 23 90 15z m-580 -22 c33 -9 60 -20 60 -24 0 -13
-51 -96 -123 -202 -37 -54 -67 -102 -67 -108 0 -28 -169 48 -235 105 -39 34
-39 35 -14 36 89 1 229 81 280 161 18 27 34 49 36 49 2 0 30 -7 63 -17z m264
-93 c5 -46 17 -89 36 -127 32 -63 33 -62 -36 -93 -69 -33 -155 -50 -245 -50
-127 0 -127 0 -64 82 29 39 75 113 102 164 l48 94 76 0 76 0 7 -70z"/>
<path d="M14333 8535 c-48 -34 -138 -225 -164 -350 l-12 -60 -13 98 c-15 119
-39 196 -67 220 -20 17 -21 17 -41 -3 -17 -16 -22 -36 -24 -100 -6 -122 27
-262 80 -341 l17 -26 -49 -6 c-142 -17 -216 -112 -310 -397 -92 -278 -210
-714 -210 -773 l1 -32 61 64 c151 160 547 738 613 895 21 51 19 134 -5 173
l-19 32 64 36 c36 20 97 62 137 94 115 91 159 152 138 192 -21 39 -90 17 -191
-62 -30 -23 -59 -46 -66 -51 -7 -5 13 39 43 98 55 108 94 216 94 259 0 25 -24
55 -43 55 -7 0 -22 -7 -34 -15z m44 -41 c9 -24 -25 -136 -69 -226 -35 -74
-142 -248 -151 -248 -6 0 21 115 49 210 26 85 93 230 122 263 19 21 41 22 49
1z m-298 -88 c26 -31 52 -195 49 -310 l-3 -111 -28 59 c-43 92 -60 163 -61
256 -1 110 12 143 43 106z m431 -182 c0 -41 -179 -188 -309 -254 -49 -25 -48
-20 22 67 49 61 141 142 207 182 42 25 80 28 80 5z m-349 -320 c53 -51 56
-112 9 -203 -77 -151 -241 -399 -433 -656 -162 -217 -174 -231 -163 -200 4 11
19 70 32 130 14 61 38 158 55 217 l31 106 35 -24 c64 -43 74 -23 16 30 l-37
34 28 96 29 96 23 -34 c26 -38 102 -80 128 -70 22 9 11 22 -35 41 -43 17 -86
61 -95 98 -5 21 46 168 66 189 5 4 15 -5 24 -21 21 -41 82 -93 109 -93 21 1
20 2 -8 26 -106 90 -116 109 -85 159 67 108 200 147 271 79z"/>
<path d="M12683 8224 c-36 -18 -70 -58 -103 -124 -12 -25 -24 -47 -25 -48 -2
-2 -20 14 -40 37 -20 22 -56 47 -80 57 -38 14 -49 15 -87 3 -53 -17 -88 -65
-88 -121 l0 -38 -42 7 c-159 29 -268 -45 -268 -179 0 -42 6 -64 24 -90 l23
-35 -34 -33 c-48 -45 -73 -103 -73 -170 0 -134 98 -219 237 -208 55 5 55 5 85
-36 55 -76 112 -236 183 -511 40 -155 47 -173 78 -201 44 -41 138 -59 226 -45
70 11 114 32 159 75 69 64 75 103 41 268 -15 70 -23 157 -26 271 l-5 167 43 0
c157 1 254 176 158 284 l-29 34 27 17 c105 66 146 159 107 241 -18 37 -87 71
-123 59 -26 -8 -26 -8 -2 41 43 89 35 161 -20 189 -36 19 -52 18 -116 -4 l-52
-18 -30 49 c-20 32 -43 54 -66 63 -42 18 -42 18 -82 -1z m106 -69 c17 -20 31
-41 31 -48 0 -7 6 -21 13 -30 11 -16 16 -15 61 8 136 69 192 -20 103 -163 -39
-63 -36 -80 14 -63 48 16 83 13 113 -10 31 -25 35 -81 9 -136 -16 -34 -96
-102 -119 -103 -6 0 -17 -6 -24 -14 -9 -12 -4 -19 28 -40 51 -32 69 -79 52
-133 -15 -47 -55 -91 -97 -109 -47 -20 -144 -17 -210 6 -32 11 -61 20 -65 20
-4 0 -10 -16 -14 -36 -9 -48 -60 -99 -113 -114 -91 -24 -188 34 -250 149 -18
34 -36 61 -40 61 -4 0 -18 -12 -32 -26 -53 -59 -157 -81 -222 -48 -45 23 -66
44 -88 86 -40 79 -13 179 67 245 l45 36 -33 34 c-30 31 -33 40 -33 93 0 67 20
102 76 135 43 25 127 26 192 1 56 -22 67 -16 44 23 -24 42 -21 66 14 105 61
70 162 51 216 -41 13 -24 29 -43 33 -43 5 0 26 32 46 70 64 123 125 151 183
85z m-459 -886 c43 -58 80 -88 129 -105 22 -7 36 -18 35 -28 0 -9 -2 -44 -3
-78 -2 -62 -2 -63 -20 -41 -10 12 -43 66 -74 120 -31 54 -74 120 -97 146 -25
28 -38 51 -34 59 5 8 11 7 18 -6 6 -10 27 -40 46 -67z m-46 -12 c22 -34 68
-111 103 -172 67 -114 98 -155 118 -155 14 0 25 74 25 160 l0 56 48 14 c66 19
64 20 77 -35 16 -70 51 -145 68 -145 10 0 17 24 26 83 13 93 43 208 54 208 4
-1 16 -1 26 -1 19 0 19 -6 14 -108 -7 -126 11 -321 37 -404 17 -56 17 -58 -2
-95 -27 -52 -65 -91 -113 -116 -57 -30 -204 -31 -255 -1 -44 25 -55 50 -69
144 -12 81 -106 366 -154 469 -16 34 -43 79 -60 98 -30 34 -30 36 -12 49 10 8
21 14 24 14 3 -1 24 -29 45 -63z m483 29 c1 -1 -6 -29 -16 -62 -11 -33 -22
-81 -26 -107 -4 -26 -11 -45 -15 -42 -5 3 -16 31 -25 63 -17 56 -17 58 4 94
11 20 21 44 21 54 0 13 6 15 27 9 16 -4 29 -8 30 -9z"/>
<path d="M12391 7896 c-7 -8 -14 -30 -18 -49 -5 -34 -6 -34 -37 -25 -43 14
-99 -11 -126 -54 -24 -40 -27 -116 -4 -159 20 -39 30 -30 15 12 -25 73 -5 146
49 174 37 19 53 19 90 0 l30 -16 0 41 c0 91 100 86 131 -7 8 -26 9 -26 4 7 -9
66 -100 117 -134 76z"/>
<path d="M12709 7770 c-29 -24 -22 -25 19 -4 33 16 70 11 84 -10 4 -6 8 -28 8
-48 0 -30 4 -38 18 -38 41 0 68 -57 48 -103 -17 -42 -36 -56 -99 -78 -48 -16
-49 -18 -20 -18 47 -1 110 27 133 59 20 28 26 82 14 115 -4 8 -19 22 -35 31
-22 11 -29 22 -29 44 0 17 -9 39 -20 50 -27 27 -90 27 -121 0z"/>
<path d="M5936 6801 c-38 -25 -66 -70 -66 -106 0 -20 -9 -36 -27 -50 -14 -12
-27 -31 -28 -43 -1 -13 -21 -34 -54 -56 -29 -20 -56 -36 -60 -36 -5 0 -16 9
-26 20 -35 39 -83 20 -136 -53 -37 -52 -37 -83 2 -123 l31 -32 -35 -84 c-20
-46 -43 -112 -51 -148 -22 -93 -21 -233 4 -311 96 -314 480 -524 830 -455 317
62 550 336 550 646 0 200 -89 384 -246 510 -50 41 -51 43 -38 68 20 38 17 65
-8 90 -35 32 -108 62 -156 62 -40 0 -44 -2 -60 -38 -10 -21 -22 -37 -27 -36
-6 1 -21 5 -35 8 -14 3 -33 19 -43 35 -12 20 -30 34 -55 40 -24 7 -43 21 -55
40 -36 61 -153 90 -211 52z m154 -40 c42 -31 31 -43 -60 -61 -47 -10 -97 -21
-112 -25 -32 -8 -35 0 -14 48 30 74 115 91 186 38z m124 -100 l21 -21 -32 6
c-43 9 -212 -13 -288 -37 -75 -23 -78 -23 -66 0 14 25 52 39 167 61 117 22
169 19 198 -9z m294 -11 c23 -10 42 -25 42 -32 0 -7 3 -22 5 -33 12 -45 -8
-47 -86 -10 -40 19 -79 35 -86 35 -17 0 -16 11 3 38 19 28 63 29 122 2z m-434
-62 c5 -10 7 -10 12 0 3 6 23 12 45 12 30 0 39 -4 39 -17 1 -17 1 -17 14 0 8
10 26 17 45 17 25 0 31 -4 31 -22 0 -21 1 -21 13 -4 10 14 21 17 45 11 36 -8
35 -5 22 -39 -6 -17 -6 -26 0 -26 6 0 10 3 10 8 0 4 7 15 14 24 11 15 18 16
45 7 30 -11 41 -32 21 -44 -5 -3 -10 -14 -10 -23 1 -13 7 -9 25 12 22 27 26
29 50 18 20 -9 26 -18 22 -32 -5 -21 7 -28 18 -10 4 7 13 7 26 0 19 -11 19
-11 -1 -37 -11 -14 -18 -29 -14 -32 3 -3 14 4 24 17 22 27 32 28 54 3 17 -19
17 -20 -8 -36 -14 -10 -23 -22 -20 -27 3 -5 17 0 30 13 19 18 26 20 39 9 21
-17 19 -28 -7 -51 -16 -12 -18 -18 -9 -19 8 0 22 7 31 15 15 14 19 13 35 -5
18 -20 18 -21 -10 -50 -22 -23 -25 -30 -12 -30 9 0 22 9 29 20 17 27 23 25 38
-10 11 -28 10 -33 -9 -54 -29 -31 -27 -42 5 -21 14 9 27 15 29 13 6 -7 25 -47
25 -53 0 -3 -13 -11 -30 -16 -16 -6 -30 -16 -30 -21 0 -10 17 -8 53 7 14 6 17
2 17 -23 0 -26 -5 -31 -30 -37 -43 -9 -38 -29 5 -21 l35 7 0 -40 c0 -32 -4
-40 -20 -43 -12 -2 -20 -7 -19 -13 1 -5 11 -9 21 -7 16 3 19 -2 16 -30 -3 -31
-5 -33 -41 -31 -23 2 -35 -1 -32 -7 3 -6 14 -10 23 -10 34 0 47 -16 35 -43 -9
-20 -17 -24 -34 -20 -15 4 -20 3 -15 -5 4 -7 14 -12 22 -12 16 0 18 -9 5 -28
-5 -9 -18 -11 -37 -7 l-29 7 24 -20 c22 -18 23 -20 7 -50 -16 -31 -32 -34 -63
-9 -9 6 -13 6 -13 -1 0 -6 11 -17 24 -24 22 -12 23 -15 10 -32 -12 -17 -17
-18 -39 -8 -45 21 -63 14 -27 -9 31 -20 32 -22 16 -40 -21 -23 -32 -24 -56 -2
-16 15 -18 15 -18 0 0 -9 8 -20 17 -26 15 -8 15 -11 4 -25 -13 -15 -15 -15
-32 0 -21 19 -40 11 -21 -8 17 -17 15 -26 -9 -39 -18 -9 -27 -7 -50 10 -32 24
-37 17 -14 -16 15 -21 14 -23 -15 -38 -29 -15 -31 -15 -55 12 -17 20 -24 23
-25 13 0 -9 6 -22 12 -28 10 -10 10 -15 -2 -22 -23 -15 -47 -12 -55 8 -7 15
-9 14 -14 -6 -3 -13 -10 -23 -16 -23 -5 0 -13 10 -17 23 -6 22 -6 21 -7 -4 -1
-16 -5 -28 -10 -28 -5 0 -16 -3 -24 -6 -9 -3 -17 3 -22 18 l-8 23 -4 -22 c-3
-15 -12 -23 -24 -23 -13 0 -19 7 -20 23 l0 22 -11 -22 c-7 -14 -20 -23 -35
-23 -18 0 -23 6 -24 28 0 27 -1 27 -11 5 -6 -13 -19 -23 -30 -23 -15 0 -17 5
-12 28 l6 27 -20 -24 c-14 -17 -25 -22 -40 -17 -18 6 -20 11 -12 32 12 30 -3
32 -22 2 -19 -29 -49 -19 -41 14 6 23 6 23 -15 5 -25 -23 -45 -14 -36 16 6 21
6 21 -12 5 -25 -22 -58 -6 -48 24 5 17 4 18 -15 9 -15 -9 -27 -9 -41 -1 -23
12 -25 21 -8 38 7 7 8 12 2 12 -6 0 -15 -5 -22 -12 -16 -16 -44 9 -36 34 5 16
2 18 -19 13 -19 -5 -29 -1 -40 16 -14 19 -14 23 -1 37 8 8 12 17 9 20 -3 3
-11 0 -17 -6 -17 -17 -24 -15 -43 15 -17 25 -17 27 6 45 l24 20 -32 -6 c-43
-7 -56 25 -21 54 25 21 18 26 -13 10 -31 -17 -38 18 -8 42 l24 20 -27 -6 c-25
-6 -28 -3 -28 19 0 18 5 25 20 25 11 0 20 5 20 10 0 6 -11 10 -25 10 -22 0
-25 4 -25 35 0 31 3 35 25 35 14 0 25 5 25 10 0 6 -12 10 -26 10 -22 0 -25 3
-20 23 3 12 6 31 6 42 0 15 3 16 12 7 7 -7 19 -12 28 -12 11 1 9 6 -8 20 -19
16 -22 25 -17 51 6 26 10 30 31 25 29 -8 32 9 5 24 -18 9 -19 12 -4 50 11 27
21 39 30 35 10 -3 13 1 8 15 -10 31 11 59 37 52 21 -5 22 -4 9 12 -20 25 1 70
29 61 21 -7 27 4 11 21 -6 5 -4 16 4 28 13 17 15 17 21 3 10 -28 24 -19 18 11
-8 40 20 63 42 36 15 -18 15 -18 10 8 -5 22 -1 31 20 45 25 16 27 16 40 -2 13
-18 14 -17 14 8 0 17 5 27 14 27 8 0 21 3 30 6 11 4 16 0 17 -12 0 -15 2 -15
6 -4 8 21 24 30 56 30 21 0 27 -5 28 -22 1 -21 2 -20 11 5 10 29 51 39 62 15z
m-400 -81 c17 -13 15 -18 -34 -86 l-53 -72 -23 22 c-33 31 -30 58 12 107 37
44 66 52 98 29z"/>
<path d="M6033 6519 c-62 -18 -35 -29 70 -29 180 0 302 -45 413 -152 103 -99
157 -227 157 -373 0 -153 -47 -268 -148 -370 -62 -63 -121 -97 -202 -116 -60
-15 -230 -15 -303 -1 -191 36 -344 154 -397 305 -26 74 -24 209 5 310 55 195
162 331 309 393 54 23 55 25 19 19 -113 -18 -220 -114 -291 -258 -131 -267
-109 -500 64 -659 63 -57 118 -87 221 -120 63 -19 96 -23 210 -23 115 0 145 3
201 23 208 72 326 240 337 477 9 211 -78 381 -252 494 -99 65 -183 91 -291 90
-49 0 -105 -5 -122 -10z"/>
<path d="M6054 6426 c-8 -22 5 -106 17 -106 12 0 12 107 -1 115 -6 3 -13 -1
-16 -9z"/>
<path d="M6066 6193 c-20 -59 -20 -63 3 -63 16 0 22 -12 32 -57 8 -32 12 -70
11 -85 -2 -19 2 -28 18 -33 12 -4 24 -5 26 -2 3 3 29 -10 57 -29 28 -19 55
-34 60 -34 5 0 39 -18 77 -40 45 -26 67 -45 66 -57 -1 -13 13 -21 51 -31 59
-16 87 -11 79 15 -3 10 -10 37 -16 61 -12 45 -23 51 -52 26 -17 -16 -22 -15
-80 14 -35 16 -98 44 -140 62 -43 18 -78 36 -78 40 0 5 -7 16 -16 25 -9 9 -23
44 -30 78 -13 63 -9 76 24 77 6 0 12 4 12 8 0 12 -64 72 -77 72 -6 0 -18 -21
-27 -47z"/>
<path d="M6570 6018 c-21 -10 -22 -12 -7 -15 25 -6 67 5 67 17 0 13 -28 12
-60 -2z"/>
<path d="M5737 5900 c-40 -7 -54 -16 -44 -26 10 -11 90 10 95 24 4 13 4 13
-51 2z"/>
<path d="M6180 5645 c0 -40 19 -105 30 -105 18 0 19 19 3 66 -20 62 -33 77
-33 39z"/>
<path d="M13770 6295 c-192 -28 -418 -84 -648 -161 -161 -54 -200 -73 -259
-127 l-45 -42 6 -65 c11 -107 35 -189 87 -298 40 -82 64 -117 117 -171 76 -77
177 -133 272 -152 43 -8 60 -16 63 -30 12 -46 109 -60 239 -35 159 31 243 81
274 164 11 30 34 62 65 90 67 60 126 153 151 239 17 56 26 73 40 73 11 0 36 9
57 19 102 53 163 197 131 312 -12 43 -80 123 -123 145 -40 21 -94 20 -118 -2
-22 -20 -21 -20 -38 24 l-13 32 -87 -1 c-47 -1 -124 -7 -171 -14z m220 -22 c0
-5 -9 -23 -20 -41 -17 -27 -23 -31 -39 -22 -11 5 -35 10 -53 10 -38 0 -264
-55 -406 -99 -54 -17 -162 -44 -242 -62 -179 -39 -242 -62 -291 -106 -39 -35
-39 -35 -66 -18 l-27 18 35 29 c48 42 169 101 269 133 215 68 509 134 705 158
57 7 135 7 135 0z m65 -128 c32 -154 42 -306 25 -388 -30 -147 -135 -276 -288
-355 -97 -50 -151 -67 -281 -88 -164 -26 -294 0 -408 85 -108 79 -215 268
-253 448 -6 27 -13 59 -16 71 l-5 24 31 -22 c49 -35 115 -50 221 -50 240 0
596 88 752 187 68 43 142 119 167 173 13 27 24 49 26 47 1 -1 14 -60 29 -132z
m182 53 c114 -111 88 -271 -58 -366 -34 -23 -64 -40 -66 -38 -2 1 0 17 3 34 4
21 15 34 35 42 74 31 122 134 99 214 -22 80 -96 120 -140 76 -12 -12 -23 -20
-25 -18 -2 2 -7 23 -11 46 -6 40 -5 42 26 56 46 19 84 6 137 -46z m-307 -16
c0 -15 -65 -71 -124 -106 -125 -75 -350 -141 -579 -171 -141 -18 -189 -19
-259 -4 l-52 12 34 28 c48 41 122 66 290 100 79 16 199 46 265 66 206 63 425
102 425 75z m250 -39 c35 -20 50 -52 50 -104 0 -51 -19 -87 -67 -129 l-38 -34
-12 104 c-6 56 -15 110 -18 118 -7 19 21 62 41 62 9 0 29 -7 44 -17z m-320
-752 c0 -4 -18 -28 -40 -53 -47 -54 -113 -85 -220 -104 -108 -19 -147 -17
-189 9 l-36 22 40 3 c91 6 331 71 390 107 45 26 55 29 55 16z"/>
<path d="M13675 5841 c-66 -39 -119 -128 -131 -215 l-7 -46 -19 40 c-12 24
-37 50 -66 68 -52 33 -277 125 -292 120 -12 -4 40 -162 75 -227 68 -124 149
-180 243 -167 26 3 59 15 74 26 15 11 32 20 38 20 6 0 4 10 -5 24 -16 24 -15
24 19 36 40 13 79 55 102 109 12 28 54 204 54 227 0 12 -59 1 -85 -15z m55
-28 c-1 -42 -40 -178 -58 -202 -23 -31 -65 -57 -107 -66 -29 -7 -30 -7 -8 9
26 19 103 133 103 152 0 28 -16 13 -55 -52 -45 -74 -56 -65 -25 19 34 90 151
200 150 140z m-325 -125 c49 -25 82 -54 101 -90 22 -43 18 -42 -43 6 -61 47
-155 96 -187 96 -10 0 35 -36 100 -79 66 -44 137 -95 158 -114 l40 -34 -47
-18 c-32 -12 -63 -16 -99 -13 -48 5 -57 10 -100 57 -49 53 -123 191 -134 248
l-6 32 88 -35 c49 -20 107 -45 129 -56z"/>
<path d="M12711 5202 c-16 -30 -41 -136 -33 -144 4 -4 57 -21 117 -38 61 -17
118 -33 127 -36 13 -5 21 8 37 64 33 110 36 107 -102 148 -96 29 -133 30 -146
6z m18 -76 c-12 -36 -26 -66 -30 -66 -12 0 -11 1 5 46 28 77 37 97 42 92 2 -3
-5 -35 -17 -72z m61 62 c-1 -23 -41 -123 -49 -126 -8 -3 -9 3 -2 20 6 12 15
42 21 66 6 23 15 42 20 42 6 0 10 -1 10 -2z m50 -18 c0 -20 -42 -120 -51 -120
-5 0 -9 3 -9 8 1 10 20 94 25 110 5 14 35 17 35 2z m50 -19 c0 -18 -39 -106
-49 -109 -15 -5 -14 10 5 73 11 39 19 52 30 48 8 -3 14 -8 14 -12z m31 -39
c-14 -46 -39 -98 -40 -81 -2 28 30 120 39 114 5 -3 5 -18 1 -33z m26 -14 c-3
-7 -5 -2 -5 12 0 14 2 19 5 13 2 -7 2 -19 0 -25z m-13 -56 c-4 -18 -10 -32
-14 -32 -5 0 -3 16 3 35 13 42 20 40 11 -3z"/>
<path d="M5507 5186 c-16 -16 -19 -31 -77 -381 -47 -284 -62 -362 -129 -642
-66 -273 -66 -305 -1 -338 33 -17 122 -20 150 -5 24 13 31 36 80 275 63 308
60 296 79 291 9 -3 53 -10 99 -16 128 -17 220 -35 435 -84 109 -25 207 -46
217 -46 10 0 21 -4 24 -9 3 -4 -13 -111 -35 -237 -57 -321 -56 -304 -25 -341
32 -38 114 -61 158 -44 49 19 59 48 94 297 54 382 101 634 159 862 19 74 35
143 35 153 0 30 -34 57 -94 74 -60 18 -101 12 -116 -15 -10 -18 -102 -409
-115 -488 -6 -39 -10 -43 -29 -38 -11 3 -115 24 -231 46 -115 22 -288 54 -383
72 l-174 33 6 35 c25 142 76 475 76 495 0 39 -51 65 -127 65 -40 0 -67 -5 -76
-14z m163 -36 c11 -6 20 -19 20 -29 0 -47 -102 -611 -166 -921 -63 -306 -63
-306 -89 -334 -51 -55 -155 -18 -155 55 0 17 32 162 70 321 80 327 112 481
135 648 42 306 33 284 107 276 32 -3 68 -10 78 -16z m1036 -205 c13 -8 24 -23
24 -33 0 -10 -16 -83 -36 -163 -53 -217 -78 -354 -123 -679 -23 -162 -46 -317
-51 -345 -12 -54 -43 -95 -72 -95 -25 0 -91 28 -100 43 -25 39 29 369 182
1112 42 207 32 189 97 182 30 -3 65 -13 79 -22z m-726 -436 c168 -34 335 -67
373 -74 37 -7 69 -14 71 -16 2 -2 -3 -38 -11 -81 l-15 -76 -47 13 c-76 22
-586 120 -684 131 -36 4 -61 12 -64 21 -5 13 14 130 24 146 2 4 14 5 26 2 12
-3 159 -32 327 -66z"/>
<path d="M12611 4990 c-116 -53 -205 -152 -237 -265 -10 -36 -24 -65 -30 -65
-39 0 -72 -122 -40 -149 22 -18 20 -41 -3 -41 -26 0 -37 -16 -55 -85 -15 -58
-15 -61 5 -88 23 -31 19 -41 -14 -42 -27 0 -46 -37 -54 -105 -5 -40 -3 -51 11
-56 26 -10 19 -25 -9 -18 -22 5 -27 1 -39 -27 -27 -64 -30 -108 -11 -129 17
-19 17 -20 -3 -20 -27 0 -41 -27 -49 -88 -4 -37 -2 -52 12 -65 9 -9 15 -17 13
-18 -2 0 -11 -2 -21 -4 -44 -8 -77 -106 -53 -158 8 -18 16 -63 18 -101 4 -62
7 -71 34 -93 16 -13 61 -33 99 -44 39 -11 111 -34 160 -50 52 -17 112 -29 142
-29 49 0 54 3 80 37 15 21 49 58 75 83 51 49 68 83 68 135 0 22 -6 35 -17 40
-15 5 -13 9 13 20 48 20 83 122 52 153 -9 9 -8 12 5 12 22 0 43 34 58 94 11
46 11 49 -12 67 l-24 19 28 0 c29 0 37 12 60 98 11 41 10 45 -13 62 l-25 19
37 15 c33 14 39 23 59 86 22 68 22 70 4 90 -16 18 -17 23 -5 30 8 6 21 10 27
10 17 0 53 73 53 108 0 15 -5 33 -11 39 -9 9 -8 21 3 50 59 149 -2 367 -126
448 -69 45 -194 57 -265 25z m240 -41 c96 -61 155 -190 146 -319 -7 -96 -28
-156 -52 -152 -229 43 -446 106 -520 153 -51 32 -50 26 -13 126 10 29 40 75
65 103 111 124 263 160 374 89z m-456 -319 c13 -20 122 -68 265 -115 113 -38
165 -50 235 -54 102 -7 110 -14 80 -82 -13 -28 -24 -39 -44 -41 -31 -4 -40
-37 -20 -74 18 -34 -16 -126 -50 -134 -34 -8 -46 -53 -21 -75 17 -15 17 -20 3
-63 -19 -55 -17 -53 -35 -56 -37 -5 -54 -48 -23 -60 33 -12 2 -116 -35 -116
-27 0 -36 -25 -20 -56 8 -13 11 -26 9 -28 -9 -8 -257 34 -319 54 -36 11 -117
47 -180 80 -94 49 -111 60 -93 66 29 8 41 44 19 59 -19 14 -20 40 -5 84 10 29
19 35 46 32 20 -3 26 39 8 59 -15 16 -15 24 -3 66 10 37 19 50 37 54 34 8 51
58 26 76 -31 23 -3 128 38 143 34 13 42 52 15 72 -17 14 -20 22 -13 55 4 21
11 45 17 52 13 15 54 16 63 2z m-140 -862 c118 -60 332 -118 431 -118 31 0 44
-4 44 -14 0 -18 -27 -46 -45 -46 -17 0 -29 -50 -16 -63 22 -22 12 -77 -16
-103 -50 -44 -54 -48 -87 -99 -33 -50 -34 -50 -82 -47 -27 2 -78 14 -114 26
-36 13 -90 29 -120 36 -30 7 -81 23 -112 37 l-57 25 -4 82 c-3 44 -8 98 -12
118 -10 54 1 86 30 94 28 7 44 49 26 67 -12 12 -15 46 -5 71 5 13 13 11 47
-13 23 -16 65 -40 92 -53z"/>
<path d="M12565 4398 c-15 -24 -62 -83 -104 -131 -103 -120 -126 -164 -126
-249 0 -80 19 -112 85 -145 145 -75 261 38 248 240 -5 71 -54 304 -68 320 -4
4 -19 -11 -35 -35z m46 -133 c32 -107 33 -251 4 -309 -27 -54 -63 -79 -114
-78 -83 1 -144 60 -143 137 2 63 39 133 137 260 60 77 82 99 87 86 3 -9 17
-52 29 -96z"/>
<path d="M5190 4965 c-10 -11 -68 -261 -70 -295 0 -4 -16 -4 -36 -2 -27 3 -41
-1 -59 -18 -58 -55 -35 -136 53 -185 1 -1 -7 -46 -19 -101 -11 -54 -23 -120
-26 -146 -5 -45 -4 -48 23 -59 16 -6 58 -17 94 -25 51 -10 67 -11 76 -1 13 14
143 667 151 757 l6 57 -49 17 c-60 20 -127 21 -144 1z m109 -26 c28 -6 53 -14
56 -19 3 -5 -6 -53 -19 -107 -14 -54 -37 -161 -51 -238 -64 -339 -76 -400 -84
-408 -10 -10 -129 11 -136 24 -5 7 21 146 101 549 41 206 42 210 64 210 10 0
42 -5 69 -11z m-189 -306 c0 -28 -24 -133 -30 -133 -5 0 -18 12 -29 26 -23 29
-28 83 -9 102 13 13 68 17 68 5z"/>
<path d="M6794 4673 c-15 -11 -40 -112 -68 -278 -14 -77 -41 -227 -60 -333
-20 -106 -36 -197 -36 -202 0 -12 92 -30 155 -30 54 0 54 0 64 38 6 20 18 85
27 143 l17 107 38 6 c102 16 122 167 25 192 l-23 5 25 144 c13 79 22 151 19
159 -3 8 -19 21 -34 29 -34 17 -134 30 -149 20z m146 -59 c8 -9 1 -61 -41
-294 -52 -293 -82 -436 -92 -449 -13 -15 -112 -10 -129 7 -6 6 10 121 42 298
28 159 56 321 61 359 18 125 9 114 84 100 37 -7 70 -16 75 -21z m28 -340 c44
-30 17 -99 -46 -119 -20 -6 -23 -4 -19 12 3 10 9 38 12 63 11 67 15 71 53 44z"/>
<path d="M13591 4419 c-215 -25 -351 -96 -351 -184 0 -58 101 -473 166 -682
39 -128 60 -153 145 -173 80 -19 237 -8 332 24 84 28 116 45 160 85 26 23 27
29 27 113 0 106 -45 631 -61 706 -13 64 -29 76 -124 96 -96 19 -206 25 -294
15z m265 -40 c66 -13 88 -27 79 -52 -10 -25 -45 -44 -146 -76 -206 -66 -305
-80 -420 -61 -103 17 -113 23 -95 58 32 61 107 103 224 127 84 17 280 19 358
4z m147 -271 l5 -56 -46 21 c-36 16 -74 22 -163 25 -185 7 -348 -34 -433 -109
l-44 -38 -30 116 c-18 64 -30 118 -28 120 1 2 19 -3 38 -11 54 -23 154 -30
243 -16 142 21 401 110 422 144 7 11 25 -86 36 -196z m-140 -38 c75 -11 117
-33 117 -61 0 -36 -33 -41 -124 -18 -105 26 -139 21 -204 -30 -86 -68 -104
-74 -209 -69 -52 3 -97 8 -100 12 -8 8 52 71 92 96 53 33 230 74 335 79 14 0
56 -4 93 -9z m-16 -101 c56 -13 103 -19 131 -15 37 5 42 3 42 -13 0 -25 29
-388 33 -403 3 -15 -131 -91 -202 -114 -42 -15 -86 -19 -181 -19 -135 0 -175
12 -204 58 -12 18 -97 302 -120 399 -6 27 -5 27 21 16 43 -16 172 -14 216 5
20 9 59 34 85 55 42 36 64 49 84 51 3 1 46 -8 95 -20z"/>
<path d="M6820 3405 c-86 -60 -100 -73 -131 -119 -29 -42 -34 -58 -37 -123 -5
-93 15 -150 76 -215 128 -137 369 -107 455 56 32 62 31 173 -4 246 -53 111
-139 171 -254 176 -61 3 -74 1 -105 -21z m177 -30 c31 -13 33 -16 22 -36 -36
-68 37 -230 124 -275 l27 -15 -19 -37 c-38 -74 -119 -121 -209 -122 -51 0 -53
1 -45 23 4 12 8 61 8 108 0 75 -4 92 -30 144 -35 68 -81 105 -131 105 -19 0
-34 3 -34 6 0 17 27 49 73 85 51 41 52 41 116 35 35 -4 79 -13 98 -21z m109
-70 c18 -19 42 -60 53 -90 21 -57 28 -125 12 -125 -4 0 -31 24 -59 53 -59 63
-84 133 -66 181 9 24 23 20 60 -19z m-341 -74 c59 -27 83 -59 102 -135 13 -56
14 -78 5 -128 -6 -33 -13 -63 -16 -65 -3 -3 -25 5 -50 17 -90 43 -143 143
-133 251 3 32 8 62 12 68 9 16 34 13 80 -8z"/>
<path d="M5710 3144 c-106 -28 -179 -73 -275 -169 -147 -147 -202 -290 -192
-504 6 -137 23 -205 81 -326 101 -211 272 -376 501 -484 107 -50 171 -72 354
-121 84 -23 183 -55 220 -73 82 -38 163 -114 195 -181 13 -28 97 -162 187
-298 90 -135 180 -272 199 -304 50 -81 110 -140 158 -155 35 -10 45 -9 78 8
80 41 92 127 34 243 -49 97 -205 312 -402 552 -102 125 -119 152 -149 245 -22
65 -23 84 -25 423 -2 311 -5 366 -22 445 -93 425 -418 717 -796 714 -50 0
-116 -7 -146 -15z m320 -39 c304 -79 541 -369 596 -727 11 -72 14 -176 12
-400 -2 -340 5 -389 66 -504 38 -72 41 -64 -48 -124 l-48 -32 -46 52 c-88 101
-138 124 -537 245 -211 65 -367 157 -502 298 -43 45 -96 109 -118 142 -84 127
-135 292 -135 435 0 307 226 590 505 634 53 8 191 -2 255 -19z m743 -1722 c4
-4 -5 -19 -20 -35 -21 -21 -23 -28 -10 -28 9 0 23 10 31 22 16 22 16 22 31 3
19 -26 19 -34 -5 -70 -22 -34 -25 -45 -10 -45 6 0 20 16 32 35 20 34 21 35 34
16 10 -14 11 -26 4 -45 -7 -20 -6 -26 4 -26 8 0 17 8 21 18 6 16 7 16 16 0 7
-12 5 -27 -6 -49 -19 -35 -11 -54 10 -25 8 10 16 24 18 30 3 6 11 3 21 -9 16
-19 16 -48 1 -88 -6 -13 -3 -16 9 -11 8 3 18 15 21 25 5 16 10 18 21 8 19 -16
18 -26 -7 -57 -14 -19 -17 -28 -8 -31 7 -2 21 6 31 19 18 22 19 22 33 4 20
-26 18 -48 -5 -69 -23 -21 -26 -35 -6 -35 8 0 23 11 33 25 l18 26 18 -29 c16
-29 16 -31 -4 -56 -30 -38 -18 -57 14 -22 22 24 28 26 33 13 3 -9 -3 -28 -15
-43 -33 -42 -26 -65 8 -27 21 22 32 28 40 20 15 -15 14 -39 -5 -65 -14 -20
-14 -22 1 -22 8 0 18 7 21 15 9 21 19 19 31 -8 8 -17 7 -29 -3 -48 -20 -36
-18 -52 5 -39 31 16 34 13 27 -37 -8 -63 -28 -83 -83 -83 -65 0 -103 42 -255
281 -73 116 -170 267 -216 336 -45 69 -81 127 -80 128 2 2 21 12 43 23 22 12
51 30 65 41 27 22 33 24 43 14z"/>
<path d="M5714 2966 c-122 -28 -213 -95 -253 -186 -67 -155 -46 -423 50 -615
109 -218 287 -363 488 -396 233 -39 455 116 512 356 15 64 15 205 0 270 -18
78 -105 243 -163 311 -185 212 -421 308 -634 260z m81 -87 c13 -25 13 -26 -31
-47 -24 -12 -50 -22 -57 -22 -6 0 -24 19 -39 42 -31 48 -29 51 47 74 44 13 51
9 80 -47z m129 55 c26 -10 19 -19 -34 -44 -49 -23 -50 -23 -65 -4 -41 52 -40
54 24 54 33 0 66 -3 75 -6z m127 -44 c62 -32 67 -43 23 -54 -19 -5 -30 -2 -40
11 -39 49 -55 73 -49 73 3 0 33 -14 66 -30z m-66 -27 c14 -21 25 -41 25 -45 0
-4 -22 -19 -50 -33 l-50 -25 -26 40 c-15 22 -24 43 -21 47 11 10 81 52 89 53
4 0 19 -17 33 -37z m-335 -23 c11 -21 20 -42 20 -44 0 -3 -23 -18 -52 -32
l-52 -26 -24 28 c-19 23 -23 25 -19 9 3 -11 7 -27 11 -35 4 -10 -4 -21 -26
-33 -43 -25 -57 -9 -29 36 23 38 124 137 140 137 6 0 20 -18 31 -40z m200 -55
c13 -24 22 -46 20 -48 -3 -3 -25 -15 -49 -27 -50 -25 -52 -23 -87 42 -14 27
-14 28 33 52 27 14 50 25 53 26 3 0 16 -20 30 -45z m342 19 c21 -15 38 -31 38
-35 0 -5 -22 -20 -48 -33 l-49 -25 -32 45 -31 45 32 14 c44 19 46 19 90 -11z
m-122 -64 c17 -22 29 -43 26 -48 -6 -10 -105 -57 -109 -51 -24 33 -58 91 -55
94 10 9 85 44 95 45 6 0 26 -18 43 -40z m-352 -20 c12 -21 22 -41 22 -44 0 -7
-101 -59 -104 -54 -33 46 -46 68 -46 77 0 9 83 59 100 60 3 1 15 -17 28 -39z
m574 -7 c21 -20 38 -42 38 -48 0 -12 -89 -65 -108 -65 -11 0 -77 89 -70 94 9
8 94 56 98 56 2 0 21 -17 42 -37z m-368 -43 c14 -22 26 -43 26 -48 0 -10 -98
-58 -104 -51 -2 2 -15 23 -30 46 l-26 43 47 24 c27 14 51 25 54 26 4 0 18 -18
33 -40z m-336 -20 l23 -40 -33 -20 c-18 -11 -36 -20 -40 -20 -7 0 -48 73 -48
85 0 4 56 32 70 34 3 1 15 -17 28 -39z m553 -3 c9 -12 23 -33 32 -47 l16 -26
-59 -32 -59 -33 -31 47 c-35 51 -35 53 27 90 48 28 55 28 74 1z m-656 -47 c18
-39 18 -41 -1 -55 -30 -23 -34 -18 -34 40 0 30 4 55 8 55 5 0 17 -18 27 -40z
m307 -5 l27 -45 -49 -25 c-27 -14 -53 -25 -57 -25 -10 0 -59 87 -53 93 10 9
86 46 95 47 6 0 22 -20 37 -45z m577 23 c8 -13 23 -37 33 -55 l19 -31 -56 -32
c-31 -18 -60 -28 -64 -24 -32 39 -62 86 -57 91 9 10 101 72 106 72 3 1 12 -9
19 -21z m-361 -75 c17 -26 29 -50 26 -54 -5 -9 -94 -59 -104 -59 -7 0 -60 92
-60 104 0 6 89 55 101 56 4 0 20 -21 37 -47z m-353 -8 c14 -25 23 -50 20 -55
-4 -6 -24 -19 -45 -30 l-38 -19 -21 49 c-12 27 -21 53 -21 58 0 7 55 40 72 41
3 1 18 -19 33 -44z m590 -32 l36 -47 -63 -33 c-35 -17 -66 -32 -70 -33 -12 0
-63 93 -53 97 6 2 33 16 60 33 28 16 51 29 52 29 1 1 18 -20 38 -46z m-717
-124 c-47 -42 -36 -52 20 -17 34 21 35 21 49 2 8 -10 23 -36 34 -56 l19 -38
-52 -30 c-29 -16 -58 -30 -64 -30 -14 0 -32 44 -49 117 -17 71 -23 103 -28
136 -5 35 -4 38 26 51 l32 13 28 -55 29 -55 -44 -38z m341 90 c17 -27 29 -54
26 -59 -4 -7 -93 -60 -100 -60 -8 0 -65 113 -60 118 12 12 80 50 92 51 6 1 25
-22 42 -50z m580 -4 c12 -31 21 -59 21 -63 0 -8 -80 -56 -84 -50 -33 43 -66
101 -61 106 11 11 89 61 97 61 4 1 16 -24 27 -54z m-364 -45 c14 -23 23 -45
20 -50 -6 -10 -106 -62 -111 -58 -1 2 -14 23 -28 48 l-25 45 52 27 c29 15 55
27 59 28 4 0 19 -18 33 -40z m-346 -26 c18 -30 31 -57 29 -58 -1 -1 -24 -15
-50 -29 l-47 -28 -31 60 -30 60 43 25 c23 14 44 26 47 26 3 0 20 -25 39 -56z
m586 -6 l35 -53 -66 -33 c-73 -37 -77 -36 -112 27 l-22 40 62 35 c35 20 64 36
65 36 1 0 18 -24 38 -52z m-380 -44 c15 -25 25 -47 23 -48 -14 -10 -98 -56
-102 -56 -6 0 -56 76 -56 85 0 3 100 64 107 65 0 0 13 -21 28 -46z m540 -23
c7 -63 3 -81 -20 -81 -11 0 -65 77 -65 93 0 6 62 47 72 47 3 0 9 -27 13 -59z
m-341 4 c9 -14 23 -36 32 -50 l16 -25 -57 -25 c-32 -14 -62 -24 -67 -23 -4 2
-20 22 -33 45 l-25 42 52 29 c66 37 63 37 82 7z m250 -49 c14 -25 26 -48 26
-53 -1 -9 -128 -68 -133 -62 -20 26 -48 81 -43 86 4 5 112 68 123 72 0 1 13
-19 27 -43z m-578 -7 c14 -22 24 -42 22 -43 -2 -1 -25 -15 -52 -31 -55 -31
-56 -30 -92 37 -13 26 -13 27 29 51 23 14 48 25 54 26 7 1 24 -17 39 -40z
m194 -39 c11 -21 20 -42 20 -44 0 -3 -22 -17 -50 -31 l-50 -25 -26 40 c-15 22
-25 42 -23 44 8 9 94 56 101 56 4 0 17 -18 28 -40z m-325 -26 c15 -25 25 -47
23 -48 -72 -44 -111 -66 -117 -66 -4 0 -20 22 -35 49 l-26 49 62 30 c35 17 64
31 65 31 0 1 13 -20 28 -45z m540 -11 c14 -21 25 -42 25 -48 0 -8 -99 -65
-113 -65 -6 0 -51 90 -47 93 5 4 102 55 107 57 1 0 14 -17 28 -37z m265 11 c0
-8 -4 -12 -10 -9 -5 3 -10 10 -10 16 0 5 5 9 10 9 6 0 10 -7 10 -16z m-612
-45 c13 -22 22 -42 20 -44 -9 -8 -89 -45 -97 -45 -10 0 -56 69 -50 75 7 6 94
55 99 55 3 0 15 -19 28 -41z m580 12 c30 -41 15 -84 -39 -111 -21 -11 -43 -20
-48 -20 -11 0 -66 88 -60 94 2 2 31 17 64 34 33 17 60 31 61 32 0 0 10 -13 22
-29z m-384 -55 c14 -25 26 -47 26 -51 0 -6 -85 -45 -98 -45 -4 0 -19 20 -34
45 l-28 45 53 24 c28 14 53 25 54 25 0 1 13 -19 27 -43z m-330 -23 c17 -36 17
-37 -5 -54 -13 -9 -35 -24 -50 -33 -27 -16 -28 -16 -58 23 l-31 39 57 30 c32
17 61 31 64 32 3 0 13 -17 23 -37z m562 -30 l25 -41 -57 -26 c-31 -14 -60 -26
-65 -26 -4 0 -19 19 -33 42 l-26 43 53 27 c28 15 58 26 65 25 8 -1 25 -21 38
-44z m-362 -18 l25 -45 -51 -25 c-40 -19 -54 -22 -60 -13 -34 51 -50 80 -47
82 11 10 86 45 96 46 6 0 23 -20 37 -45z m492 -22 c-30 -56 -33 -58 -46 -33
-11 20 -9 25 11 41 37 29 53 25 35 -8z m-287 -35 l22 -38 -53 -23 -53 -24 -22
36 c-12 20 -23 39 -23 43 0 11 94 57 101 50 3 -4 16 -24 28 -44z m-344 -5 c11
-21 21 -41 23 -45 2 -4 -13 -15 -33 -25 l-36 -17 -41 42 -42 41 45 20 c60 27
63 26 84 -16z m560 -13 c19 -37 17 -40 -48 -91 l-51 -41 -22 44 c-13 24 -23
48 -24 54 0 9 98 60 122 63 4 1 15 -13 23 -29z m-356 -36 c12 -19 21 -39 21
-43 0 -9 -98 -57 -103 -50 -2 2 -13 21 -25 42 l-22 37 48 24 c26 13 50 24 54
25 3 1 15 -15 27 -35z m210 -58 l30 -43 -26 -12 c-14 -6 -44 -14 -67 -17 -39
-6 -42 -4 -55 28 -8 18 -16 36 -19 41 -4 8 74 46 95 47 7 0 26 -20 42 -44z
m-335 -16 l18 -32 -23 7 c-13 4 -39 17 -58 28 l-35 21 30 12 c33 14 41 9 68
-36z m184 -17 c40 -58 40 -57 -24 -49 -73 8 -104 16 -104 26 0 7 84 47 102 49
4 1 15 -11 26 -26z"/>
<path d="M6471 1719 c-30 -22 -73 -44 -95 -50 -23 -6 -45 -13 -49 -16 -15 -9
15 -33 80 -64 35 -16 93 -53 128 -80 36 -27 65 -46 65 -41 0 5 -11 40 -24 78
-13 38 -26 99 -30 136 -4 37 -11 70 -14 72 -4 2 -31 -14 -61 -35z m73 -151
l23 -67 -36 28 c-20 15 -62 45 -94 66 l-59 39 44 22 c24 12 52 32 63 44 l20
22 8 -43 c5 -24 19 -74 31 -111z"/>
<path d="M8718 3131 c-80 -26 -140 -64 -203 -127 l-53 -54 -94 31 c-151 51
-253 44 -315 -23 -56 -60 -148 -339 -260 -788 -54 -217 -67 -284 -70 -370 -4
-97 -3 -109 19 -150 31 -56 79 -87 222 -141 193 -72 679 -204 956 -258 317
-62 397 -47 468 86 56 107 157 406 217 643 55 221 105 485 105 557 0 66 -1 67
-44 109 -26 25 -68 51 -103 64 -63 24 -198 60 -224 60 -11 0 -22 18 -34 53
-48 149 -204 288 -356 317 -77 15 -167 11 -231 -9z m195 -26 c100 -21 170 -57
238 -121 175 -168 179 -425 8 -597 -127 -127 -316 -159 -472 -80 -153 77 -267
276 -255 444 12 167 157 324 330 358 62 13 76 12 151 -4z m-562 -146 c49 -11
91 -25 95 -30 8 -13 -7 -11 -93 13 -43 12 -107 22 -143 22 -120 2 -160 -47
-215 -260 -15 -54 -53 -193 -86 -308 -116 -402 -159 -612 -140 -683 19 -70 60
-95 286 -171 401 -135 937 -262 1108 -262 101 0 163 50 218 177 60 137 192
627 244 902 29 156 31 208 9 240 -21 29 -113 71 -219 101 -44 12 -84 27 -90
32 -7 8 -5 9 5 6 9 -3 42 -11 75 -18 104 -21 211 -67 244 -106 42 -47 41 -87
-9 -332 -76 -372 -171 -696 -258 -882 -72 -155 -107 -173 -292 -147 -346 49
-1155 272 -1273 351 -87 59 -92 144 -24 441 62 272 119 484 173 645 59 174 95
250 131 272 39 24 144 23 254 -3z m-23 -38 c51 -10 94 -20 97 -22 2 -3 -2 -27
-10 -54 -8 -26 -15 -80 -15 -119 0 -193 106 -374 266 -452 41 -21 74 -40 74
-44 0 -4 -16 -66 -35 -136 -19 -71 -66 -245 -104 -388 -39 -142 -72 -260 -75
-263 -11 -11 -550 159 -628 198 -101 51 -112 93 -74 284 27 132 200 785 236
891 43 123 86 140 268 105z m1218 -309 c55 -28 67 -46 66 -95 -3 -137 -193
-896 -267 -1063 -49 -112 -121 -154 -237 -139 -112 14 -471 88 -534 110 -7 2
24 143 90 406 l101 402 91 -2 c158 -4 284 55 375 175 46 61 86 164 91 234 1
19 3 38 5 41 4 9 168 -43 219 -69z"/>
<path d="M8735 3057 c-94 -31 -192 -118 -232 -204 -33 -72 -39 -143 -19 -223
37 -144 109 -239 224 -293 60 -28 77 -31 157 -31 80 0 97 3 156 31 119 55 181
132 215 264 32 126 -8 262 -106 360 -74 74 -141 101 -259 106 -61 2 -110 -2
-136 -10z m217 -37 c20 -6 64 -29 99 -52 182 -122 209 -359 59 -522 -118 -128
-329 -141 -460 -29 -120 103 -176 293 -122 415 39 89 121 159 227 195 43 14
134 11 197 -7z"/>
<path d="M8770 2915 c0 -15 11 -58 25 -96 l24 -69 -24 -24 c-14 -14 -25 -37
-25 -51 0 -32 50 -85 80 -85 25 0 80 51 80 74 0 33 -24 66 -59 79 -34 14 -37
18 -54 95 -19 84 -47 130 -47 77z m114 -214 c22 -24 18 -49 -11 -68 -20 -14
-24 -13 -48 11 -29 29 -31 39 -9 60 21 21 47 20 68 -3z"/>
<path d="M12782 2864 c-161 -31 -363 -81 -374 -92 -9 -9 14 -171 26 -191 15
-24 -55 -53 -309 -126 -148 -42 -287 -82 -307 -87 -29 -8 -38 -15 -38 -32 0
-12 23 -126 51 -252 27 -126 64 -299 80 -384 17 -85 48 -247 70 -360 38 -197
71 -321 92 -347 28 -37 353 15 882 141 127 30 399 92 605 136 206 45 383 86
393 92 17 8 18 18 12 86 -10 117 -32 255 -59 377 -69 310 -228 921 -250 961
-11 21 -12 21 -296 -42 -184 -41 -288 -60 -294 -54 -6 6 -20 10 -32 10 -19 0
-24 9 -38 69 -25 109 -31 121 -63 120 -16 0 -84 -12 -151 -25z m172 -19 c7
-20 10 -19 -164 -55 -80 -16 -190 -41 -245 -54 -74 -18 -102 -21 -107 -13 -4
7 -6 16 -5 22 2 5 93 29 203 52 109 23 217 46 239 51 58 14 72 14 79 -3z m11
-163 c-7 -29 -13 -31 -238 -81 -224 -51 -237 -49 -261 34 -9 27 -14 50 -13 50
1 1 38 9 82 19 246 53 353 77 380 84 29 8 30 7 43 -37 6 -25 10 -56 7 -69z
m717 -112 c85 -326 156 -612 182 -735 23 -110 66 -395 66 -436 0 -13 -12 -19
-42 -24 -50 -8 -417 -88 -1005 -220 -362 -81 -604 -132 -755 -159 -37 -7 -38
-6 -38 22 0 15 -15 91 -34 168 -19 76 -62 285 -95 464 -50 267 -112 543 -146
656 -5 17 -1 23 17 28 431 119 1743 429 1787 423 9 -1 30 -64 63 -187z"/>
<path d="M12810 2359 c-129 -20 -313 -146 -365 -249 -84 -165 -32 -413 116
-561 187 -187 480 -185 663 6 183 191 183 534 1 693 -97 86 -274 133 -415 111z
m202 -40 c156 -33 268 -146 304 -306 47 -211 -58 -438 -244 -526 -63 -30 -74
-32 -182 -32 -106 0 -119 2 -173 29 -122 59 -222 182 -262 320 -25 84 -17 224
14 286 49 93 193 204 297 229 56 13 184 13 246 0z"/>
<path d="M12822 2166 c-29 -8 -55 -16 -58 -19 -3 -2 2 -31 10 -63 28 -111 30
-105 -52 -124 -40 -9 -75 -19 -77 -22 -4 -4 23 -116 31 -129 2 -4 34 2 71 12
37 11 73 19 79 19 7 0 20 -34 29 -79 24 -108 21 -105 94 -90 33 6 61 15 61 20
0 4 -9 47 -20 94 -11 47 -20 87 -20 89 0 1 32 9 71 16 39 8 73 19 76 26 7 20
-28 126 -40 121 -28 -11 -128 -30 -132 -25 -3 3 -12 42 -21 86 -19 91 -15 89
-102 68z"/>
<path d="M11174 2660 c-33 -13 -38 -28 -19 -56 9 -14 15 -29 13 -34 -2 -4 -27
-33 -56 -64 l-54 -56 -70 65 c-70 64 -101 78 -126 53 -18 -18 -15 -59 7 -94
10 -16 60 -68 112 -115 142 -128 219 -201 219 -209 0 -7 -189 -234 -199 -238
-7 -3 -94 73 -215 190 l-91 87 109 110 c64 65 105 115 101 121 -10 16 -25 0
-306 -300 l-239 -254 0 -116 c0 -63 5 -133 10 -154 l9 -39 -87 -94 c-89 -96
-127 -150 -100 -141 7 3 37 34 67 69 30 35 71 84 92 109 l38 45 157 5 156 5
147 150 c80 83 197 212 260 288 63 75 116 137 118 137 2 0 18 -7 34 -16 17 -8
45 -14 62 -12 26 2 33 8 35 29 3 27 1 30 -141 150 l-31 26 63 71 c59 67 64 70
91 60 35 -12 70 4 70 32 0 28 -58 98 -125 152 -60 49 -73 53 -111 38z m46 -31
c50 -31 129 -98 141 -121 16 -31 -2 -40 -39 -20 -53 28 -152 122 -152 143 0
24 7 24 50 -2z m58 -179 c-7 -9 -33 -43 -58 -74 l-45 -57 -53 57 -52 57 57 61
58 61 53 -44 c46 -38 51 -46 40 -61z m-158 -110 c138 -138 202 -210 189 -210
-20 0 -31 9 -219 176 -127 113 -200 187 -200 203 0 14 11 41 17 41 3 0 99 -94
213 -210z m-383 -222 c93 -101 198 -204 222 -219 l24 -15 -105 -114 c-118
-130 -182 -190 -201 -190 -35 0 -143 79 -194 143 -30 37 -56 67 -59 67 -8 0
27 -74 50 -105 13 -17 47 -47 75 -66 28 -19 51 -37 51 -41 0 -5 -38 -8 -84 -8
-46 0 -91 -3 -99 -6 -19 -7 -25 23 -33 168 l-7 118 79 82 c43 46 110 118 148
161 38 42 73 77 77 77 5 0 30 -23 56 -52z"/>
</g>
</svg>
